
<svg viewBox="0 0 900 1050" width="100%" xmlns="http://www.w3.org/2000/svg">

<defs>
<linearGradient id="bg" x1="0" y1="0" x2="1" y2="1">
<stop offset="0%" stop-color="#0d1117" />
<stop offset="100%" stop-color="#161b22" />
</linearGradient>
</defs>

<rect width="100%" height="100%" rx="20" fill="url(#bg)" stroke="#30363d" />

<text x="32" y="48" fill="#58a6ff" font-size="26" font-weight="700">
🚀 GitInsight Profile
</text>


<g transform="translate(32, 70)">

  <defs>
    <clipPath id="clip-32-70">
      <rect width="390" height="140" rx="14"/>
    </clipPath>
  </defs>

  <rect
    width="390"
    height="140"
    rx="14"
    fill="#0d1117"
    stroke="#30363d"
  />

  <text
    x="20"
    y="30"
    fill="#58a6ff"
    font-size="17"
    font-weight="600">
    📊 Overview
  </text>

  <!--clip content so nothing overflows card -->
  <g transform="translate(0,0)" clip-path="url(#clip-32-70)">
    
<text x="20" y="60" fill="#c9d1d9">📦 Repositories: 16</text>
<text x="20" y="80" fill="#c9d1d9">⭐ Stars: 1</text>
<text x="20" y="100" fill="#c9d1d9">🍴 Forks: 0</text>
<text x="20" y="120" fill="#c9d1d9">🔥 Contributions: 343</text>

  </g>

</g>



<g transform="translate(458, 70)">

  <defs>
    <clipPath id="clip-458-70">
      <rect width="390" height="140" rx="14"/>
    </clipPath>
  </defs>

  <rect
    width="390"
    height="140"
    rx="14"
    fill="#0d1117"
    stroke="#30363d"
  />

  <text
    x="20"
    y="30"
    fill="#58a6ff"
    font-size="17"
    font-weight="600">
    🧠 Developer Insights
  </text>

  <!--clip content so nothing overflows card -->
  <g transform="translate(0,0)" clip-path="url(#clip-458-70)">
    
<text x="20" y="60" fill="#c9d1d9">🏆 Top Repo: CoreGPT</text>
<text x="20" y="80" fill="#c9d1d9">📊 Total Commits: 619</text>
<text x="20" y="100" fill="#c9d1d9">⚡ Productivity Score: 100</text>

  </g>

</g>



<g transform="translate(32, 230)">

  <defs>
    <clipPath id="clip-32-230">
      <rect width="390" height="140" rx="14"/>
    </clipPath>
  </defs>

  <rect
    width="390"
    height="140"
    rx="14"
    fill="#0d1117"
    stroke="#30363d"
  />

  <text
    x="20"
    y="30"
    fill="#58a6ff"
    font-size="17"
    font-weight="600">
    💻 Code Activity
  </text>

  <!--clip content so nothing overflows card -->
  <g transform="translate(0,0)" clip-path="url(#clip-32-230)">
    
<text x="20" y="60" fill="#c9d1d9">➕ Lines Added: 103335</text>
<text x="20" y="80" fill="#c9d1d9">➖ Lines Deleted: 64586</text>
<text x="20" y="100" fill="#c9d1d9">📈 Net Lines: 38749</text>

  </g>

</g>



<g transform="translate(458, 230)">

  <defs>
    <clipPath id="clip-458-230">
      <rect width="390" height="140" rx="14"/>
    </clipPath>
  </defs>

  <rect
    width="390"
    height="140"
    rx="14"
    fill="#0d1117"
    stroke="#30363d"
  />

  <text
    x="20"
    y="30"
    fill="#58a6ff"
    font-size="17"
    font-weight="600">
    🌐 Traffic Analytics
  </text>

  <!--clip content so nothing overflows card -->
  <g transform="translate(0,0)" clip-path="url(#clip-458-230)">
    
<text x="20" y="60" fill="#c9d1d9">👀 Views: 215</text>
<text x="20" y="80" fill="#c9d1d9">🧑 Visitors: 26</text>

  </g>

</g>



<g transform="translate(32, 390)">

  <defs>
    <clipPath id="clip-32-390">
      <rect width="816" height="260" rx="14"/>
    </clipPath>
  </defs>

  <rect
    width="816"
    height="260"
    rx="14"
    fill="#0d1117"
    stroke="#30363d"
  />

  <text
    x="20"
    y="30"
    fill="#58a6ff"
    font-size="17"
    font-weight="600">
    🔥 Contribution Heatmap
  </text>

  <!--clip content so nothing overflows card -->
  <g transform="translate(0,0)" clip-path="url(#clip-32-390)">
    
<g transform="translate(40,60) scale(1.1572327044025157)">

<rect
x="0"
y="0"
width="9"
height="9"
rx="2"
fill="#21262d"
/>
<rect
x="0"
y="12"
width="9"
height="9"
rx="2"
fill="#21262d"
/>
<rect
x="0"
y="24"
width="9"
height="9"
rx="2"
fill="#21262d"
/>
<rect
x="0"
y="36"
width="9"
height="9"
rx="2"
fill="#21262d"
/>
<rect
x="0"
y="48"
width="9"
height="9"
rx="2"
fill="#21262d"
/>
<rect
x="0"
y="60"
width="9"
height="9"
rx="2"
fill="#21262d"
/>
<rect
x="0"
y="72"
width="9"
height="9"
rx="2"
fill="#21262d"
/>
<rect
x="12"
y="0"
width="9"
height="9"
rx="2"
fill="#21262d"
/>
<rect
x="12"
y="12"
width="9"
height="9"
rx="2"
fill="#21262d"
/>
<rect
x="12"
y="24"
width="9"
height="9"
rx="2"
fill="#21262d"
/>
<rect
x="12"
y="36"
width="9"
height="9"
rx="2"
fill="#21262d"
/>
<rect
x="12"
y="48"
width="9"
height="9"
rx="2"
fill="#21262d"
/>
<rect
x="12"
y="60"
width="9"
height="9"
rx="2"
fill="#21262d"
/>
<rect
x="12"
y="72"
width="9"
height="9"
rx="2"
fill="#21262d"
/>
<rect
x="24"
y="0"
width="9"
height="9"
rx="2"
fill="#21262d"
/>
<rect
x="24"
y="12"
width="9"
height="9"
rx="2"
fill="#21262d"
/>
<rect
x="24"
y="24"
width="9"
height="9"
rx="2"
fill="#21262d"
/>
<rect
x="24"
y="36"
width="9"
height="9"
rx="2"
fill="#21262d"
/>
<rect
x="24"
y="48"
width="9"
height="9"
rx="2"
fill="#21262d"
/>
<rect
x="24"
y="60"
width="9"
height="9"
rx="2"
fill="#21262d"
/>
<rect
x="24"
y="72"
width="9"
height="9"
rx="2"
fill="#21262d"
/>
<rect
x="36"
y="0"
width="9"
height="9"
rx="2"
fill="#21262d"
/>
<rect
x="36"
y="12"
width="9"
height="9"
rx="2"
fill="#21262d"
/>
<rect
x="36"
y="24"
width="9"
height="9"
rx="2"
fill="#21262d"
/>
<rect
x="36"
y="36"
width="9"
height="9"
rx="2"
fill="#21262d"
/>
<rect
x="36"
y="48"
width="9"
height="9"
rx="2"
fill="#21262d"
/>
<rect
x="36"
y="60"
width="9"
height="9"
rx="2"
fill="#21262d"
/>
<rect
x="36"
y="72"
width="9"
height="9"
rx="2"
fill="#21262d"
/>
<rect
x="48"
y="0"
width="9"
height="9"
rx="2"
fill="#21262d"
/>
<rect
x="48"
y="12"
width="9"
height="9"
rx="2"
fill="#21262d"
/>
<rect
x="48"
y="24"
width="9"
height="9"
rx="2"
fill="#21262d"
/>
<rect
x="48"
y="36"
width="9"
height="9"
rx="2"
fill="#21262d"
/>
<rect
x="48"
y="48"
width="9"
height="9"
rx="2"
fill="#21262d"
/>
<rect
x="48"
y="60"
width="9"
height="9"
rx="2"
fill="#21262d"
/>
<rect
x="48"
y="72"
width="9"
height="9"
rx="2"
fill="#21262d"
/>
<rect
x="60"
y="0"
width="9"
height="9"
rx="2"
fill="#21262d"
/>
<rect
x="60"
y="12"
width="9"
height="9"
rx="2"
fill="#21262d"
/>
<rect
x="60"
y="24"
width="9"
height="9"
rx="2"
fill="#21262d"
/>
<rect
x="60"
y="36"
width="9"
height="9"
rx="2"
fill="#21262d"
/>
<rect
x="60"
y="48"
width="9"
height="9"
rx="2"
fill="#21262d"
/>
<rect
x="60"
y="60"
width="9"
height="9"
rx="2"
fill="#21262d"
/>
<rect
x="60"
y="72"
width="9"
height="9"
rx="2"
fill="#21262d"
/>
<rect
x="72"
y="0"
width="9"
height="9"
rx="2"
fill="#21262d"
/>
<rect
x="72"
y="12"
width="9"
height="9"
rx="2"
fill="#21262d"
/>
<rect
x="72"
y="24"
width="9"
height="9"
rx="2"
fill="#21262d"
/>
<rect
x="72"
y="36"
width="9"
height="9"
rx="2"
fill="#21262d"
/>
<rect
x="72"
y="48"
width="9"
height="9"
rx="2"
fill="#21262d"
/>
<rect
x="72"
y="60"
width="9"
height="9"
rx="2"
fill="#21262d"
/>
<rect
x="72"
y="72"
width="9"
height="9"
rx="2"
fill="#21262d"
/>
<rect
x="84"
y="0"
width="9"
height="9"
rx="2"
fill="#21262d"
/>
<rect
x="84"
y="12"
width="9"
height="9"
rx="2"
fill="#21262d"
/>
<rect
x="84"
y="24"
width="9"
height="9"
rx="2"
fill="#21262d"
/>
<rect
x="84"
y="36"
width="9"
height="9"
rx="2"
fill="#21262d"
/>
<rect
x="84"
y="48"
width="9"
height="9"
rx="2"
fill="#21262d"
/>
<rect
x="84"
y="60"
width="9"
height="9"
rx="2"
fill="#21262d"
/>
<rect
x="84"
y="72"
width="9"
height="9"
rx="2"
fill="#21262d"
/>
<rect
x="96"
y="0"
width="9"
height="9"
rx="2"
fill="#21262d"
/>
<rect
x="96"
y="12"
width="9"
height="9"
rx="2"
fill="#21262d"
/>
<rect
x="96"
y="24"
width="9"
height="9"
rx="2"
fill="#21262d"
/>
<rect
x="96"
y="36"
width="9"
height="9"
rx="2"
fill="#21262d"
/>
<rect
x="96"
y="48"
width="9"
height="9"
rx="2"
fill="#21262d"
/>
<rect
x="96"
y="60"
width="9"
height="9"
rx="2"
fill="#21262d"
/>
<rect
x="96"
y="72"
width="9"
height="9"
rx="2"
fill="#21262d"
/>
<rect
x="108"
y="0"
width="9"
height="9"
rx="2"
fill="#21262d"
/>
<rect
x="108"
y="12"
width="9"
height="9"
rx="2"
fill="#21262d"
/>
<rect
x="108"
y="24"
width="9"
height="9"
rx="2"
fill="#21262d"
/>
<rect
x="108"
y="36"
width="9"
height="9"
rx="2"
fill="#21262d"
/>
<rect
x="108"
y="48"
width="9"
height="9"
rx="2"
fill="#21262d"
/>
<rect
x="108"
y="60"
width="9"
height="9"
rx="2"
fill="#21262d"
/>
<rect
x="108"
y="72"
width="9"
height="9"
rx="2"
fill="#21262d"
/>
<rect
x="120"
y="0"
width="9"
height="9"
rx="2"
fill="#21262d"
/>
<rect
x="120"
y="12"
width="9"
height="9"
rx="2"
fill="#21262d"
/>
<rect
x="120"
y="24"
width="9"
height="9"
rx="2"
fill="#21262d"
/>
<rect
x="120"
y="36"
width="9"
height="9"
rx="2"
fill="#21262d"
/>
<rect
x="120"
y="48"
width="9"
height="9"
rx="2"
fill="#21262d"
/>
<rect
x="120"
y="60"
width="9"
height="9"
rx="2"
fill="#21262d"
/>
<rect
x="120"
y="72"
width="9"
height="9"
rx="2"
fill="#21262d"
/>
<rect
x="132"
y="0"
width="9"
height="9"
rx="2"
fill="#21262d"
/>
<rect
x="132"
y="12"
width="9"
height="9"
rx="2"
fill="#21262d"
/>
<rect
x="132"
y="24"
width="9"
height="9"
rx="2"
fill="#21262d"
/>
<rect
x="132"
y="36"
width="9"
height="9"
rx="2"
fill="#21262d"
/>
<rect
x="132"
y="48"
width="9"
height="9"
rx="2"
fill="#21262d"
/>
<rect
x="132"
y="60"
width="9"
height="9"
rx="2"
fill="#21262d"
/>
<rect
x="132"
y="72"
width="9"
height="9"
rx="2"
fill="#21262d"
/>
<rect
x="144"
y="0"
width="9"
height="9"
rx="2"
fill="#21262d"
/>
<rect
x="144"
y="12"
width="9"
height="9"
rx="2"
fill="#21262d"
/>
<rect
x="144"
y="24"
width="9"
height="9"
rx="2"
fill="#21262d"
/>
<rect
x="144"
y="36"
width="9"
height="9"
rx="2"
fill="#21262d"
/>
<rect
x="144"
y="48"
width="9"
height="9"
rx="2"
fill="#21262d"
/>
<rect
x="144"
y="60"
width="9"
height="9"
rx="2"
fill="#21262d"
/>
<rect
x="144"
y="72"
width="9"
height="9"
rx="2"
fill="#21262d"
/>
<rect
x="156"
y="0"
width="9"
height="9"
rx="2"
fill="#21262d"
/>
<rect
x="156"
y="12"
width="9"
height="9"
rx="2"
fill="#21262d"
/>
<rect
x="156"
y="24"
width="9"
height="9"
rx="2"
fill="#21262d"
/>
<rect
x="156"
y="36"
width="9"
height="9"
rx="2"
fill="#21262d"
/>
<rect
x="156"
y="48"
width="9"
height="9"
rx="2"
fill="#21262d"
/>
<rect
x="156"
y="60"
width="9"
height="9"
rx="2"
fill="#21262d"
/>
<rect
x="156"
y="72"
width="9"
height="9"
rx="2"
fill="#21262d"
/>
<rect
x="168"
y="0"
width="9"
height="9"
rx="2"
fill="#21262d"
/>
<rect
x="168"
y="12"
width="9"
height="9"
rx="2"
fill="#21262d"
/>
<rect
x="168"
y="24"
width="9"
height="9"
rx="2"
fill="#21262d"
/>
<rect
x="168"
y="36"
width="9"
height="9"
rx="2"
fill="#21262d"
/>
<rect
x="168"
y="48"
width="9"
height="9"
rx="2"
fill="#21262d"
/>
<rect
x="168"
y="60"
width="9"
height="9"
rx="2"
fill="#21262d"
/>
<rect
x="168"
y="72"
width="9"
height="9"
rx="2"
fill="#21262d"
/>
<rect
x="180"
y="0"
width="9"
height="9"
rx="2"
fill="#21262d"
/>
<rect
x="180"
y="12"
width="9"
height="9"
rx="2"
fill="#21262d"
/>
<rect
x="180"
y="24"
width="9"
height="9"
rx="2"
fill="#21262d"
/>
<rect
x="180"
y="36"
width="9"
height="9"
rx="2"
fill="#21262d"
/>
<rect
x="180"
y="48"
width="9"
height="9"
rx="2"
fill="#21262d"
/>
<rect
x="180"
y="60"
width="9"
height="9"
rx="2"
fill="#21262d"
/>
<rect
x="180"
y="72"
width="9"
height="9"
rx="2"
fill="#21262d"
/>
<rect
x="192"
y="0"
width="9"
height="9"
rx="2"
fill="#21262d"
/>
<rect
x="192"
y="12"
width="9"
height="9"
rx="2"
fill="#21262d"
/>
<rect
x="192"
y="24"
width="9"
height="9"
rx="2"
fill="#21262d"
/>
<rect
x="192"
y="36"
width="9"
height="9"
rx="2"
fill="#21262d"
/>
<rect
x="192"
y="48"
width="9"
height="9"
rx="2"
fill="#21262d"
/>
<rect
x="192"
y="60"
width="9"
height="9"
rx="2"
fill="#21262d"
/>
<rect
x="192"
y="72"
width="9"
height="9"
rx="2"
fill="#21262d"
/>
<rect
x="204"
y="0"
width="9"
height="9"
rx="2"
fill="#21262d"
/>
<rect
x="204"
y="12"
width="9"
height="9"
rx="2"
fill="#21262d"
/>
<rect
x="204"
y="24"
width="9"
height="9"
rx="2"
fill="#21262d"
/>
<rect
x="204"
y="36"
width="9"
height="9"
rx="2"
fill="#21262d"
/>
<rect
x="204"
y="48"
width="9"
height="9"
rx="2"
fill="#21262d"
/>
<rect
x="204"
y="60"
width="9"
height="9"
rx="2"
fill="#21262d"
/>
<rect
x="204"
y="72"
width="9"
height="9"
rx="2"
fill="#21262d"
/>
<rect
x="216"
y="0"
width="9"
height="9"
rx="2"
fill="#21262d"
/>
<rect
x="216"
y="12"
width="9"
height="9"
rx="2"
fill="#21262d"
/>
<rect
x="216"
y="24"
width="9"
height="9"
rx="2"
fill="#21262d"
/>
<rect
x="216"
y="36"
width="9"
height="9"
rx="2"
fill="#21262d"
/>
<rect
x="216"
y="48"
width="9"
height="9"
rx="2"
fill="#21262d"
/>
<rect
x="216"
y="60"
width="9"
height="9"
rx="2"
fill="#21262d"
/>
<rect
x="216"
y="72"
width="9"
height="9"
rx="2"
fill="#21262d"
/>
<rect
x="228"
y="0"
width="9"
height="9"
rx="2"
fill="#21262d"
/>
<rect
x="228"
y="12"
width="9"
height="9"
rx="2"
fill="#21262d"
/>
<rect
x="228"
y="24"
width="9"
height="9"
rx="2"
fill="#21262d"
/>
<rect
x="228"
y="36"
width="9"
height="9"
rx="2"
fill="#21262d"
/>
<rect
x="228"
y="48"
width="9"
height="9"
rx="2"
fill="#21262d"
/>
<rect
x="228"
y="60"
width="9"
height="9"
rx="2"
fill="#21262d"
/>
<rect
x="228"
y="72"
width="9"
height="9"
rx="2"
fill="#21262d"
/>
<rect
x="240"
y="0"
width="9"
height="9"
rx="2"
fill="#21262d"
/>
<rect
x="240"
y="12"
width="9"
height="9"
rx="2"
fill="#21262d"
/>
<rect
x="240"
y="24"
width="9"
height="9"
rx="2"
fill="#21262d"
/>
<rect
x="240"
y="36"
width="9"
height="9"
rx="2"
fill="#21262d"
/>
<rect
x="240"
y="48"
width="9"
height="9"
rx="2"
fill="#21262d"
/>
<rect
x="240"
y="60"
width="9"
height="9"
rx="2"
fill="#21262d"
/>
<rect
x="240"
y="72"
width="9"
height="9"
rx="2"
fill="#21262d"
/>
<rect
x="252"
y="0"
width="9"
height="9"
rx="2"
fill="#21262d"
/>
<rect
x="252"
y="12"
width="9"
height="9"
rx="2"
fill="#21262d"
/>
<rect
x="252"
y="24"
width="9"
height="9"
rx="2"
fill="#21262d"
/>
<rect
x="252"
y="36"
width="9"
height="9"
rx="2"
fill="#21262d"
/>
<rect
x="252"
y="48"
width="9"
height="9"
rx="2"
fill="#21262d"
/>
<rect
x="252"
y="60"
width="9"
height="9"
rx="2"
fill="#21262d"
/>
<rect
x="252"
y="72"
width="9"
height="9"
rx="2"
fill="#21262d"
/>
<rect
x="264"
y="0"
width="9"
height="9"
rx="2"
fill="#21262d"
/>
<rect
x="264"
y="12"
width="9"
height="9"
rx="2"
fill="#21262d"
/>
<rect
x="264"
y="24"
width="9"
height="9"
rx="2"
fill="#21262d"
/>
<rect
x="264"
y="36"
width="9"
height="9"
rx="2"
fill="#21262d"
/>
<rect
x="264"
y="48"
width="9"
height="9"
rx="2"
fill="#21262d"
/>
<rect
x="264"
y="60"
width="9"
height="9"
rx="2"
fill="#21262d"
/>
<rect
x="264"
y="72"
width="9"
height="9"
rx="2"
fill="#21262d"
/>
<rect
x="276"
y="0"
width="9"
height="9"
rx="2"
fill="#21262d"
/>
<rect
x="276"
y="12"
width="9"
height="9"
rx="2"
fill="#21262d"
/>
<rect
x="276"
y="24"
width="9"
height="9"
rx="2"
fill="#21262d"
/>
<rect
x="276"
y="36"
width="9"
height="9"
rx="2"
fill="#21262d"
/>
<rect
x="276"
y="48"
width="9"
height="9"
rx="2"
fill="#21262d"
/>
<rect
x="276"
y="60"
width="9"
height="9"
rx="2"
fill="#21262d"
/>
<rect
x="276"
y="72"
width="9"
height="9"
rx="2"
fill="#21262d"
/>
<rect
x="288"
y="0"
width="9"
height="9"
rx="2"
fill="#21262d"
/>
<rect
x="288"
y="12"
width="9"
height="9"
rx="2"
fill="#21262d"
/>
<rect
x="288"
y="24"
width="9"
height="9"
rx="2"
fill="#21262d"
/>
<rect
x="288"
y="36"
width="9"
height="9"
rx="2"
fill="#21262d"
/>
<rect
x="288"
y="48"
width="9"
height="9"
rx="2"
fill="#21262d"
/>
<rect
x="288"
y="60"
width="9"
height="9"
rx="2"
fill="#21262d"
/>
<rect
x="288"
y="72"
width="9"
height="9"
rx="2"
fill="#21262d"
/>
<rect
x="300"
y="0"
width="9"
height="9"
rx="2"
fill="#21262d"
/>
<rect
x="300"
y="12"
width="9"
height="9"
rx="2"
fill="#21262d"
/>
<rect
x="300"
y="24"
width="9"
height="9"
rx="2"
fill="#21262d"
/>
<rect
x="300"
y="36"
width="9"
height="9"
rx="2"
fill="#21262d"
/>
<rect
x="300"
y="48"
width="9"
height="9"
rx="2"
fill="#21262d"
/>
<rect
x="300"
y="60"
width="9"
height="9"
rx="2"
fill="#39d353"
/>
<rect
x="300"
y="72"
width="9"
height="9"
rx="2"
fill="#39d353"
/>
<rect
x="312"
y="0"
width="9"
height="9"
rx="2"
fill="#21262d"
/>
<rect
x="312"
y="12"
width="9"
height="9"
rx="2"
fill="#21262d"
/>
<rect
x="312"
y="24"
width="9"
height="9"
rx="2"
fill="#21262d"
/>
<rect
x="312"
y="36"
width="9"
height="9"
rx="2"
fill="#39d353"
/>
<rect
x="312"
y="48"
width="9"
height="9"
rx="2"
fill="#21262d"
/>
<rect
x="312"
y="60"
width="9"
height="9"
rx="2"
fill="#21262d"
/>
<rect
x="312"
y="72"
width="9"
height="9"
rx="2"
fill="#21262d"
/>
<rect
x="324"
y="0"
width="9"
height="9"
rx="2"
fill="#21262d"
/>
<rect
x="324"
y="12"
width="9"
height="9"
rx="2"
fill="#21262d"
/>
<rect
x="324"
y="24"
width="9"
height="9"
rx="2"
fill="#21262d"
/>
<rect
x="324"
y="36"
width="9"
height="9"
rx="2"
fill="#39d353"
/>
<rect
x="324"
y="48"
width="9"
height="9"
rx="2"
fill="#21262d"
/>
<rect
x="324"
y="60"
width="9"
height="9"
rx="2"
fill="#21262d"
/>
<rect
x="324"
y="72"
width="9"
height="9"
rx="2"
fill="#21262d"
/>
<rect
x="336"
y="0"
width="9"
height="9"
rx="2"
fill="#21262d"
/>
<rect
x="336"
y="12"
width="9"
height="9"
rx="2"
fill="#21262d"
/>
<rect
x="336"
y="24"
width="9"
height="9"
rx="2"
fill="#21262d"
/>
<rect
x="336"
y="36"
width="9"
height="9"
rx="2"
fill="#21262d"
/>
<rect
x="336"
y="48"
width="9"
height="9"
rx="2"
fill="#21262d"
/>
<rect
x="336"
y="60"
width="9"
height="9"
rx="2"
fill="#21262d"
/>
<rect
x="336"
y="72"
width="9"
height="9"
rx="2"
fill="#21262d"
/>
<rect
x="348"
y="0"
width="9"
height="9"
rx="2"
fill="#21262d"
/>
<rect
x="348"
y="12"
width="9"
height="9"
rx="2"
fill="#21262d"
/>
<rect
x="348"
y="24"
width="9"
height="9"
rx="2"
fill="#21262d"
/>
<rect
x="348"
y="36"
width="9"
height="9"
rx="2"
fill="#21262d"
/>
<rect
x="348"
y="48"
width="9"
height="9"
rx="2"
fill="#21262d"
/>
<rect
x="348"
y="60"
width="9"
height="9"
rx="2"
fill="#21262d"
/>
<rect
x="348"
y="72"
width="9"
height="9"
rx="2"
fill="#21262d"
/>
<rect
x="360"
y="0"
width="9"
height="9"
rx="2"
fill="#21262d"
/>
<rect
x="360"
y="12"
width="9"
height="9"
rx="2"
fill="#21262d"
/>
<rect
x="360"
y="24"
width="9"
height="9"
rx="2"
fill="#21262d"
/>
<rect
x="360"
y="36"
width="9"
height="9"
rx="2"
fill="#21262d"
/>
<rect
x="360"
y="48"
width="9"
height="9"
rx="2"
fill="#21262d"
/>
<rect
x="360"
y="60"
width="9"
height="9"
rx="2"
fill="#21262d"
/>
<rect
x="360"
y="72"
width="9"
height="9"
rx="2"
fill="#21262d"
/>
<rect
x="372"
y="0"
width="9"
height="9"
rx="2"
fill="#21262d"
/>
<rect
x="372"
y="12"
width="9"
height="9"
rx="2"
fill="#21262d"
/>
<rect
x="372"
y="24"
width="9"
height="9"
rx="2"
fill="#21262d"
/>
<rect
x="372"
y="36"
width="9"
height="9"
rx="2"
fill="#21262d"
/>
<rect
x="372"
y="48"
width="9"
height="9"
rx="2"
fill="#21262d"
/>
<rect
x="372"
y="60"
width="9"
height="9"
rx="2"
fill="#21262d"
/>
<rect
x="372"
y="72"
width="9"
height="9"
rx="2"
fill="#21262d"
/>
<rect
x="384"
y="0"
width="9"
height="9"
rx="2"
fill="#21262d"
/>
<rect
x="384"
y="12"
width="9"
height="9"
rx="2"
fill="#21262d"
/>
<rect
x="384"
y="24"
width="9"
height="9"
rx="2"
fill="#21262d"
/>
<rect
x="384"
y="36"
width="9"
height="9"
rx="2"
fill="#21262d"
/>
<rect
x="384"
y="48"
width="9"
height="9"
rx="2"
fill="#21262d"
/>
<rect
x="384"
y="60"
width="9"
height="9"
rx="2"
fill="#21262d"
/>
<rect
x="384"
y="72"
width="9"
height="9"
rx="2"
fill="#21262d"
/>
<rect
x="396"
y="0"
width="9"
height="9"
rx="2"
fill="#21262d"
/>
<rect
x="396"
y="12"
width="9"
height="9"
rx="2"
fill="#21262d"
/>
<rect
x="396"
y="24"
width="9"
height="9"
rx="2"
fill="#21262d"
/>
<rect
x="396"
y="36"
width="9"
height="9"
rx="2"
fill="#21262d"
/>
<rect
x="396"
y="48"
width="9"
height="9"
rx="2"
fill="#21262d"
/>
<rect
x="396"
y="60"
width="9"
height="9"
rx="2"
fill="#21262d"
/>
<rect
x="396"
y="72"
width="9"
height="9"
rx="2"
fill="#21262d"
/>
<rect
x="408"
y="0"
width="9"
height="9"
rx="2"
fill="#21262d"
/>
<rect
x="408"
y="12"
width="9"
height="9"
rx="2"
fill="#21262d"
/>
<rect
x="408"
y="24"
width="9"
height="9"
rx="2"
fill="#21262d"
/>
<rect
x="408"
y="36"
width="9"
height="9"
rx="2"
fill="#21262d"
/>
<rect
x="408"
y="48"
width="9"
height="9"
rx="2"
fill="#21262d"
/>
<rect
x="408"
y="60"
width="9"
height="9"
rx="2"
fill="#21262d"
/>
<rect
x="408"
y="72"
width="9"
height="9"
rx="2"
fill="#21262d"
/>
<rect
x="420"
y="0"
width="9"
height="9"
rx="2"
fill="#21262d"
/>
<rect
x="420"
y="12"
width="9"
height="9"
rx="2"
fill="#21262d"
/>
<rect
x="420"
y="24"
width="9"
height="9"
rx="2"
fill="#21262d"
/>
<rect
x="420"
y="36"
width="9"
height="9"
rx="2"
fill="#21262d"
/>
<rect
x="420"
y="48"
width="9"
height="9"
rx="2"
fill="#21262d"
/>
<rect
x="420"
y="60"
width="9"
height="9"
rx="2"
fill="#21262d"
/>
<rect
x="420"
y="72"
width="9"
height="9"
rx="2"
fill="#21262d"
/>
<rect
x="432"
y="0"
width="9"
height="9"
rx="2"
fill="#21262d"
/>
<rect
x="432"
y="12"
width="9"
height="9"
rx="2"
fill="#21262d"
/>
<rect
x="432"
y="24"
width="9"
height="9"
rx="2"
fill="#21262d"
/>
<rect
x="432"
y="36"
width="9"
height="9"
rx="2"
fill="#21262d"
/>
<rect
x="432"
y="48"
width="9"
height="9"
rx="2"
fill="#21262d"
/>
<rect
x="432"
y="60"
width="9"
height="9"
rx="2"
fill="#21262d"
/>
<rect
x="432"
y="72"
width="9"
height="9"
rx="2"
fill="#21262d"
/>
<rect
x="444"
y="0"
width="9"
height="9"
rx="2"
fill="#21262d"
/>
<rect
x="444"
y="12"
width="9"
height="9"
rx="2"
fill="#21262d"
/>
<rect
x="444"
y="24"
width="9"
height="9"
rx="2"
fill="#21262d"
/>
<rect
x="444"
y="36"
width="9"
height="9"
rx="2"
fill="#21262d"
/>
<rect
x="444"
y="48"
width="9"
height="9"
rx="2"
fill="#21262d"
/>
<rect
x="444"
y="60"
width="9"
height="9"
rx="2"
fill="#39d353"
/>
<rect
x="444"
y="72"
width="9"
height="9"
rx="2"
fill="#39d353"
/>
<rect
x="456"
y="0"
width="9"
height="9"
rx="2"
fill="#21262d"
/>
<rect
x="456"
y="12"
width="9"
height="9"
rx="2"
fill="#39d353"
/>
<rect
x="456"
y="24"
width="9"
height="9"
rx="2"
fill="#21262d"
/>
<rect
x="456"
y="36"
width="9"
height="9"
rx="2"
fill="#21262d"
/>
<rect
x="456"
y="48"
width="9"
height="9"
rx="2"
fill="#21262d"
/>
<rect
x="456"
y="60"
width="9"
height="9"
rx="2"
fill="#39d353"
/>
<rect
x="456"
y="72"
width="9"
height="9"
rx="2"
fill="#21262d"
/>
<rect
x="468"
y="0"
width="9"
height="9"
rx="2"
fill="#39d353"
/>
<rect
x="468"
y="12"
width="9"
height="9"
rx="2"
fill="#21262d"
/>
<rect
x="468"
y="24"
width="9"
height="9"
rx="2"
fill="#21262d"
/>
<rect
x="468"
y="36"
width="9"
height="9"
rx="2"
fill="#39d353"
/>
<rect
x="468"
y="48"
width="9"
height="9"
rx="2"
fill="#39d353"
/>
<rect
x="468"
y="60"
width="9"
height="9"
rx="2"
fill="#21262d"
/>
<rect
x="468"
y="72"
width="9"
height="9"
rx="2"
fill="#21262d"
/>
<rect
x="480"
y="0"
width="9"
height="9"
rx="2"
fill="#21262d"
/>
<rect
x="480"
y="12"
width="9"
height="9"
rx="2"
fill="#21262d"
/>
<rect
x="480"
y="24"
width="9"
height="9"
rx="2"
fill="#21262d"
/>
<rect
x="480"
y="36"
width="9"
height="9"
rx="2"
fill="#21262d"
/>
<rect
x="480"
y="48"
width="9"
height="9"
rx="2"
fill="#21262d"
/>
<rect
x="480"
y="60"
width="9"
height="9"
rx="2"
fill="#39d353"
/>
<rect
x="480"
y="72"
width="9"
height="9"
rx="2"
fill="#21262d"
/>
<rect
x="492"
y="0"
width="9"
height="9"
rx="2"
fill="#39d353"
/>
<rect
x="492"
y="12"
width="9"
height="9"
rx="2"
fill="#21262d"
/>
<rect
x="492"
y="24"
width="9"
height="9"
rx="2"
fill="#21262d"
/>
<rect
x="492"
y="36"
width="9"
height="9"
rx="2"
fill="#21262d"
/>
<rect
x="492"
y="48"
width="9"
height="9"
rx="2"
fill="#21262d"
/>
<rect
x="492"
y="60"
width="9"
height="9"
rx="2"
fill="#21262d"
/>
<rect
x="492"
y="72"
width="9"
height="9"
rx="2"
fill="#21262d"
/>
<rect
x="504"
y="0"
width="9"
height="9"
rx="2"
fill="#21262d"
/>
<rect
x="504"
y="12"
width="9"
height="9"
rx="2"
fill="#39d353"
/>
<rect
x="504"
y="24"
width="9"
height="9"
rx="2"
fill="#39d353"
/>
<rect
x="504"
y="36"
width="9"
height="9"
rx="2"
fill="#39d353"
/>
<rect
x="504"
y="48"
width="9"
height="9"
rx="2"
fill="#39d353"
/>
<rect
x="504"
y="60"
width="9"
height="9"
rx="2"
fill="#39d353"
/>
<rect
x="504"
y="72"
width="9"
height="9"
rx="2"
fill="#39d353"
/>
<rect
x="516"
y="0"
width="9"
height="9"
rx="2"
fill="#21262d"
/>
<rect
x="516"
y="12"
width="9"
height="9"
rx="2"
fill="#39d353"
/>
<rect
x="516"
y="24"
width="9"
height="9"
rx="2"
fill="#39d353"
/>
<rect
x="516"
y="36"
width="9"
height="9"
rx="2"
fill="#39d353"
/>
<rect
x="516"
y="48"
width="9"
height="9"
rx="2"
fill="#21262d"
/>
<rect
x="516"
y="60"
width="9"
height="9"
rx="2"
fill="#21262d"
/>
<rect
x="516"
y="72"
width="9"
height="9"
rx="2"
fill="#39d353"
/>
<rect
x="528"
y="0"
width="9"
height="9"
rx="2"
fill="#21262d"
/>
<rect
x="528"
y="12"
width="9"
height="9"
rx="2"
fill="#21262d"
/>
<rect
x="528"
y="24"
width="9"
height="9"
rx="2"
fill="#39d353"
/>
<rect
x="528"
y="36"
width="9"
height="9"
rx="2"
fill="#39d353"
/>
<rect
x="528"
y="48"
width="9"
height="9"
rx="2"
fill="#39d353"
/>
<rect
x="528"
y="60"
width="9"
height="9"
rx="2"
fill="#21262d"
/>
<rect
x="528"
y="72"
width="9"
height="9"
rx="2"
fill="#21262d"
/>
<rect
x="540"
y="0"
width="9"
height="9"
rx="2"
fill="#21262d"
/>
<rect
x="540"
y="12"
width="9"
height="9"
rx="2"
fill="#21262d"
/>
<rect
x="540"
y="24"
width="9"
height="9"
rx="2"
fill="#21262d"
/>
<rect
x="540"
y="36"
width="9"
height="9"
rx="2"
fill="#21262d"
/>
<rect
x="540"
y="48"
width="9"
height="9"
rx="2"
fill="#21262d"
/>
<rect
x="540"
y="60"
width="9"
height="9"
rx="2"
fill="#21262d"
/>
<rect
x="540"
y="72"
width="9"
height="9"
rx="2"
fill="#39d353"
/>
<rect
x="552"
y="0"
width="9"
height="9"
rx="2"
fill="#39d353"
/>
<rect
x="552"
y="12"
width="9"
height="9"
rx="2"
fill="#21262d"
/>
<rect
x="552"
y="24"
width="9"
height="9"
rx="2"
fill="#39d353"
/>
<rect
x="552"
y="36"
width="9"
height="9"
rx="2"
fill="#39d353"
/>
<rect
x="552"
y="48"
width="9"
height="9"
rx="2"
fill="#39d353"
/>
<rect
x="552"
y="60"
width="9"
height="9"
rx="2"
fill="#39d353"
/>
<rect
x="552"
y="72"
width="9"
height="9"
rx="2"
fill="#39d353"
/>
<rect
x="564"
y="0"
width="9"
height="9"
rx="2"
fill="#39d353"
/>
<rect
x="564"
y="12"
width="9"
height="9"
rx="2"
fill="#21262d"
/>
<rect
x="564"
y="24"
width="9"
height="9"
rx="2"
fill="#21262d"
/>
<rect
x="564"
y="36"
width="9"
height="9"
rx="2"
fill="#21262d"
/>
<rect
x="564"
y="48"
width="9"
height="9"
rx="2"
fill="#21262d"
/>
<rect
x="564"
y="60"
width="9"
height="9"
rx="2"
fill="#21262d"
/>
<rect
x="564"
y="72"
width="9"
height="9"
rx="2"
fill="#39d353"
/>
<rect
x="576"
y="0"
width="9"
height="9"
rx="2"
fill="#39d353"
/>
<rect
x="576"
y="12"
width="9"
height="9"
rx="2"
fill="#21262d"
/>
<rect
x="576"
y="24"
width="9"
height="9"
rx="2"
fill="#21262d"
/>
<rect
x="576"
y="36"
width="9"
height="9"
rx="2"
fill="#21262d"
/>
<rect
x="576"
y="48"
width="9"
height="9"
rx="2"
fill="#39d353"
/>
<rect
x="576"
y="60"
width="9"
height="9"
rx="2"
fill="#39d353"
/>
<rect
x="576"
y="72"
width="9"
height="9"
rx="2"
fill="#39d353"
/>
<rect
x="588"
y="0"
width="9"
height="9"
rx="2"
fill="#39d353"
/>
<rect
x="588"
y="12"
width="9"
height="9"
rx="2"
fill="#39d353"
/>
<rect
x="588"
y="24"
width="9"
height="9"
rx="2"
fill="#39d353"
/>
<rect
x="588"
y="36"
width="9"
height="9"
rx="2"
fill="#39d353"
/>
<rect
x="588"
y="48"
width="9"
height="9"
rx="2"
fill="#39d353"
/>
<rect
x="588"
y="60"
width="9"
height="9"
rx="2"
fill="#39d353"
/>
<rect
x="588"
y="72"
width="9"
height="9"
rx="2"
fill="#39d353"
/>
<rect
x="600"
y="0"
width="9"
height="9"
rx="2"
fill="#39d353"
/>
<rect
x="600"
y="12"
width="9"
height="9"
rx="2"
fill="#39d353"
/>
<rect
x="600"
y="24"
width="9"
height="9"
rx="2"
fill="#39d353"
/>
<rect
x="600"
y="36"
width="9"
height="9"
rx="2"
fill="#39d353"
/>
<rect
x="600"
y="48"
width="9"
height="9"
rx="2"
fill="#39d353"
/>
<rect
x="600"
y="60"
width="9"
height="9"
rx="2"
fill="#39d353"
/>
<rect
x="600"
y="72"
width="9"
height="9"
rx="2"
fill="#39d353"
/>
<rect
x="612"
y="0"
width="9"
height="9"
rx="2"
fill="#39d353"
/>
<rect
x="612"
y="12"
width="9"
height="9"
rx="2"
fill="#39d353"
/>
<rect
x="612"
y="24"
width="9"
height="9"
rx="2"
fill="#39d353"
/>
<rect
x="612"
y="36"
width="9"
height="9"
rx="2"
fill="#39d353"
/>
<rect
x="612"
y="48"
width="9"
height="9"
rx="2"
fill="#39d353"
/>
<rect
x="612"
y="60"
width="9"
height="9"
rx="2"
fill="#39d353"
/>
<rect
x="612"
y="72"
width="9"
height="9"
rx="2"
fill="#39d353"
/>
<rect
x="624"
y="0"
width="9"
height="9"
rx="2"
fill="#39d353"
/>
<rect
x="624"
y="12"
width="9"
height="9"
rx="2"
fill="#39d353"
/>
<rect
x="624"
y="24"
width="9"
height="9"
rx="2"
fill="#39d353"
/>
<rect
x="624"
y="36"
width="9"
height="9"
rx="2"
fill="#39d353"
/>
<rect
x="624"
y="48"
width="9"
height="9"
rx="2"
fill="#39d353"
/>
<rect
x="624"
y="60"
width="9"
height="9"
rx="2"
fill="#39d353"
/>
<rect
x="624"
y="72"
width="9"
height="9"
rx="2"
fill="#21262d"
/>
</g>

  </g>

</g>



<g transform="translate(32, 690)">

  <defs>
    <clipPath id="clip-32-690">
      <rect width="390" height="150" rx="14"/>
    </clipPath>
  </defs>

  <rect
    width="390"
    height="150"
    rx="14"
    fill="#0d1117"
    stroke="#30363d"
  />

  <text
    x="20"
    y="30"
    fill="#58a6ff"
    font-size="17"
    font-weight="600">
    🧩 Languages
  </text>

  <!--clip content so nothing overflows card -->
  <g transform="translate(0,0)" clip-path="url(#clip-32-690)">
    
<text x="20" y="60" fill="#c9d1d9" font-size="13">
🔷 TypeScript
</text>

<rect
x="120"
y="50"
width="210"
height="10"
rx="5"
fill="#21262d" />

<rect
x="120"
y="50"
width="84.21000000000001"
height="10"
rx="5"
fill="#58a6ff" />

<text
x="336"
y="60"
fill="#c9d1d9"
font-size="12">
40.1%
</text>

<text x="20" y="84" fill="#c9d1d9" font-size="13">
🟨 JavaScript
</text>

<rect
x="120"
y="74"
width="210"
height="10"
rx="5"
fill="#21262d" />

<rect
x="120"
y="74"
width="76.44"
height="10"
rx="5"
fill="#58a6ff" />

<text
x="336"
y="84"
fill="#c9d1d9"
font-size="12">
36.4%
</text>

<text x="20" y="108" fill="#c9d1d9" font-size="13">
🐍 Python
</text>

<rect
x="120"
y="98"
width="210"
height="10"
rx="5"
fill="#21262d" />

<rect
x="120"
y="98"
width="23.331"
height="10"
rx="5"
fill="#58a6ff" />

<text
x="336"
y="108"
fill="#c9d1d9"
font-size="12">
11.1%
</text>

<text x="20" y="132" fill="#c9d1d9" font-size="13">
🌐 HTML
</text>

<rect
x="120"
y="122"
width="210"
height="10"
rx="5"
fill="#21262d" />

<rect
x="120"
y="122"
width="8.757"
height="10"
rx="5"
fill="#58a6ff" />

<text
x="336"
y="132"
fill="#c9d1d9"
font-size="12">
4.2%
</text>

<text x="20" y="156" fill="#c9d1d9" font-size="13">
🧩 EJS
</text>

<rect
x="120"
y="146"
width="210"
height="10"
rx="5"
fill="#21262d" />

<rect
x="120"
y="146"
width="6.027"
height="10"
rx="5"
fill="#58a6ff" />

<text
x="336"
y="156"
fill="#c9d1d9"
font-size="12">
2.9%
</text>

  </g>

</g>


<g transform="translate(458, 690)">

  <defs>
    <clipPath id="clip-458-690">
      <rect width="390" height="150" rx="14"/>
    </clipPath>
  </defs>

  <rect
    width="390"
    height="150"
    rx="14"
    fill="#0d1117"
    stroke="#30363d"
  />

  <text
    x="20"
    y="30"
    fill="#58a6ff"
    font-size="17"
    font-weight="600">
    📦 Top Repositories
  </text>

  <!--clip content so nothing overflows card -->
  <g transform="translate(0,0)" clip-path="url(#clip-458-690)">
    
<text x="20" y="60" fill="#c9d1d9" font-size="13">
📦 apollo-graphql-federat… — 121
</text>

<text x="20" y="80" fill="#c9d1d9" font-size="13">
📦 express-typescript-bac… — 76
</text>

<text x="20" y="100" fill="#c9d1d9" font-size="13">
📦 GitInsight_Engine — 75
</text>

<text x="20" y="120" fill="#c9d1d9" font-size="13">
📦 3d-portfolio — 74
</text>

<text x="20" y="140" fill="#c9d1d9" font-size="13">
📦 Abhi-lash19 — 51
</text>

  </g>

</g>


<g transform="translate(32, 870)">

  <defs>
    <clipPath id="clip-32-870">
      <rect width="390" height="150" rx="14"/>
    </clipPath>
  </defs>

  <rect
    width="390"
    height="150"
    rx="14"
    fill="#0d1117"
    stroke="#30363d"
  />

  <text
    x="20"
    y="30"
    fill="#58a6ff"
    font-size="17"
    font-weight="600">
    📊 Repo Impact
  </text>

  <!--clip content so nothing overflows card -->
  <g transform="translate(0,0)" clip-path="url(#clip-32-870)">
    
<text x="20" y="60" fill="#c9d1d9" font-size="13">
📦 3d-portfolio
</text>

<rect
x="120"
y="50"
width="210"
height="10"
rx="5"
fill="#21262d" />

<rect
x="120"
y="50"
width="210"
height="10"
rx="5"
fill="#58a6ff" />

<text x="20" y="84" fill="#c9d1d9" font-size="13">
📦 apollo-graphql-fed…
</text>

<rect
x="120"
y="74"
width="210"
height="10"
rx="5"
fill="#21262d" />

<rect
x="120"
y="74"
width="19.084221281564734"
height="10"
rx="5"
fill="#58a6ff" />

<text x="20" y="108" fill="#c9d1d9" font-size="13">
📦 Abhi-lash19
</text>

<rect
x="120"
y="98"
width="210"
height="10"
rx="5"
fill="#21262d" />

<rect
x="120"
y="98"
width="10.237921471318055"
height="10"
rx="5"
fill="#58a6ff" />

<text x="20" y="132" fill="#c9d1d9" font-size="13">
📦 infra-deploy-aws
</text>

<rect
x="120"
y="122"
width="210"
height="10"
rx="5"
fill="#21262d" />

<rect
x="120"
y="122"
width="4.352649248284922"
height="10"
rx="5"
fill="#58a6ff" />

<text x="20" y="156" fill="#c9d1d9" font-size="13">
📦 MonitorPro
</text>

<rect
x="120"
y="146"
width="210"
height="10"
rx="5"
fill="#21262d" />

<rect
x="120"
y="146"
width="3.8989928477594513"
height="10"
rx="5"
fill="#58a6ff" />

  </g>

</g>


<g transform="translate(458, 870)">

  <defs>
    <clipPath id="clip-458-870">
      <rect width="390" height="150" rx="14"/>
    </clipPath>
  </defs>

  <rect
    width="390"
    height="150"
    rx="14"
    fill="#0d1117"
    stroke="#30363d"
  />

  <text
    x="20"
    y="30"
    fill="#58a6ff"
    font-size="17"
    font-weight="600">
    📈 Commit Activity
  </text>

  <!--clip content so nothing overflows card -->
  <g transform="translate(0,0)" clip-path="url(#clip-458-870)">
    <path d="M 20 130 L 26.73076923076923 130 L 33.46153846153846 130 L 40.19230769230769 130 L 46.92307692307692 130 L 53.65384615384615 130 L 60.38461538461539 130 L 67.11538461538461 130 L 73.84615384615384 130 L 80.57692307692308 130 L 87.3076923076923 130 L 94.03846153846153 130 L 100.76923076923077 130 L 107.5 130 L 114.23076923076923 130 L 120.96153846153847 130 L 127.6923076923077 130 L 134.4230769230769 130 L 141.15384615384616 130 L 147.8846153846154 130 L 154.6153846153846 130 L 161.34615384615384 130 L 168.07692307692307 130 L 174.80769230769232 130 L 181.53846153846155 126.52173913043478 L 188.26923076923077 119.56521739130434 L 195 126.52173913043478 L 201.73076923076923 130 L 208.46153846153845 130 L 215.1923076923077 130 L 221.92307692307693 130 L 228.65384615384616 130 L 235.3846153846154 130 L 242.1153846153846 130 L 248.84615384615384 130 L 255.57692307692307 130 L 262.3076923076923 126.52173913043478 L 269.03846153846155 127.3913043478261 L 275.7692307692308 124.78260869565217 L 282.5 128.2608695652174 L 289.2307692307692 126.52173913043478 L 295.96153846153845 116.08695652173913 L 302.6923076923077 102.17391304347827 L 309.4230769230769 94.34782608695653 L 316.15384615384613 130 L 322.8846153846154 91.73913043478261 L 329.61538461538464 128.2608695652174 L 336.34615384615387 113.47826086956522 L 343.0769230769231 70 L 349.8076923076923 88.26086956521739 L 356.53846153846155 103.91304347826087 L 363.2692307692308 110" stroke="#58a6ff" fill="none" stroke-width="2"/>
  </g>

</g>


</svg>
