
<svg viewBox="0 0 420 120" width="100%" xmlns="http://www.w3.org/2000/svg">

<defs>
<linearGradient id="bg" x1="0" y1="0" x2="1" y2="1">
<stop offset="0%" stop-color="#0d1117" />
<stop offset="100%" stop-color="#161b22" />
</linearGradient>
</defs>

<rect width="100%" height="100%" rx="16" fill="url(#bg)" stroke="#30363d" />

<text x="20" y="30" fill="#58a6ff" font-size="18" font-weight="600">
🔥 Commit Heatmap
</text>

<g transform="translate(20,45)">

<rect
x="0"
y="0"
width="6"
height="6"
rx="1"
fill="#21262d"
/>
<rect
x="0"
y="8"
width="6"
height="6"
rx="1"
fill="#21262d"
/>
<rect
x="0"
y="16"
width="6"
height="6"
rx="1"
fill="#21262d"
/>
<rect
x="0"
y="24"
width="6"
height="6"
rx="1"
fill="#21262d"
/>
<rect
x="0"
y="32"
width="6"
height="6"
rx="1"
fill="#21262d"
/>
<rect
x="0"
y="40"
width="6"
height="6"
rx="1"
fill="#21262d"
/>
<rect
x="0"
y="48"
width="6"
height="6"
rx="1"
fill="#21262d"
/>
<rect
x="8"
y="0"
width="6"
height="6"
rx="1"
fill="#21262d"
/>
<rect
x="8"
y="8"
width="6"
height="6"
rx="1"
fill="#21262d"
/>
<rect
x="8"
y="16"
width="6"
height="6"
rx="1"
fill="#21262d"
/>
<rect
x="8"
y="24"
width="6"
height="6"
rx="1"
fill="#21262d"
/>
<rect
x="8"
y="32"
width="6"
height="6"
rx="1"
fill="#21262d"
/>
<rect
x="8"
y="40"
width="6"
height="6"
rx="1"
fill="#21262d"
/>
<rect
x="8"
y="48"
width="6"
height="6"
rx="1"
fill="#21262d"
/>
<rect
x="16"
y="0"
width="6"
height="6"
rx="1"
fill="#21262d"
/>
<rect
x="16"
y="8"
width="6"
height="6"
rx="1"
fill="#21262d"
/>
<rect
x="16"
y="16"
width="6"
height="6"
rx="1"
fill="#21262d"
/>
<rect
x="16"
y="24"
width="6"
height="6"
rx="1"
fill="#21262d"
/>
<rect
x="16"
y="32"
width="6"
height="6"
rx="1"
fill="#21262d"
/>
<rect
x="16"
y="40"
width="6"
height="6"
rx="1"
fill="#21262d"
/>
<rect
x="16"
y="48"
width="6"
height="6"
rx="1"
fill="#21262d"
/>
<rect
x="24"
y="0"
width="6"
height="6"
rx="1"
fill="#21262d"
/>
<rect
x="24"
y="8"
width="6"
height="6"
rx="1"
fill="#21262d"
/>
<rect
x="24"
y="16"
width="6"
height="6"
rx="1"
fill="#21262d"
/>
<rect
x="24"
y="24"
width="6"
height="6"
rx="1"
fill="#21262d"
/>
<rect
x="24"
y="32"
width="6"
height="6"
rx="1"
fill="#21262d"
/>
<rect
x="24"
y="40"
width="6"
height="6"
rx="1"
fill="#21262d"
/>
<rect
x="24"
y="48"
width="6"
height="6"
rx="1"
fill="#21262d"
/>
<rect
x="32"
y="0"
width="6"
height="6"
rx="1"
fill="#21262d"
/>
<rect
x="32"
y="8"
width="6"
height="6"
rx="1"
fill="#21262d"
/>
<rect
x="32"
y="16"
width="6"
height="6"
rx="1"
fill="#21262d"
/>
<rect
x="32"
y="24"
width="6"
height="6"
rx="1"
fill="#21262d"
/>
<rect
x="32"
y="32"
width="6"
height="6"
rx="1"
fill="#21262d"
/>
<rect
x="32"
y="40"
width="6"
height="6"
rx="1"
fill="#21262d"
/>
<rect
x="32"
y="48"
width="6"
height="6"
rx="1"
fill="#21262d"
/>
<rect
x="40"
y="0"
width="6"
height="6"
rx="1"
fill="#21262d"
/>
<rect
x="40"
y="8"
width="6"
height="6"
rx="1"
fill="#21262d"
/>
<rect
x="40"
y="16"
width="6"
height="6"
rx="1"
fill="#21262d"
/>
<rect
x="40"
y="24"
width="6"
height="6"
rx="1"
fill="#21262d"
/>
<rect
x="40"
y="32"
width="6"
height="6"
rx="1"
fill="#21262d"
/>
<rect
x="40"
y="40"
width="6"
height="6"
rx="1"
fill="#21262d"
/>
<rect
x="40"
y="48"
width="6"
height="6"
rx="1"
fill="#21262d"
/>
<rect
x="48"
y="0"
width="6"
height="6"
rx="1"
fill="#21262d"
/>
<rect
x="48"
y="8"
width="6"
height="6"
rx="1"
fill="#21262d"
/>
<rect
x="48"
y="16"
width="6"
height="6"
rx="1"
fill="#21262d"
/>
<rect
x="48"
y="24"
width="6"
height="6"
rx="1"
fill="#21262d"
/>
<rect
x="48"
y="32"
width="6"
height="6"
rx="1"
fill="#21262d"
/>
<rect
x="48"
y="40"
width="6"
height="6"
rx="1"
fill="#21262d"
/>
<rect
x="48"
y="48"
width="6"
height="6"
rx="1"
fill="#21262d"
/>
<rect
x="56"
y="0"
width="6"
height="6"
rx="1"
fill="#21262d"
/>
<rect
x="56"
y="8"
width="6"
height="6"
rx="1"
fill="#21262d"
/>
<rect
x="56"
y="16"
width="6"
height="6"
rx="1"
fill="#21262d"
/>
<rect
x="56"
y="24"
width="6"
height="6"
rx="1"
fill="#21262d"
/>
<rect
x="56"
y="32"
width="6"
height="6"
rx="1"
fill="#21262d"
/>
<rect
x="56"
y="40"
width="6"
height="6"
rx="1"
fill="#21262d"
/>
<rect
x="56"
y="48"
width="6"
height="6"
rx="1"
fill="#21262d"
/>
<rect
x="64"
y="0"
width="6"
height="6"
rx="1"
fill="#21262d"
/>
<rect
x="64"
y="8"
width="6"
height="6"
rx="1"
fill="#21262d"
/>
<rect
x="64"
y="16"
width="6"
height="6"
rx="1"
fill="#21262d"
/>
<rect
x="64"
y="24"
width="6"
height="6"
rx="1"
fill="#21262d"
/>
<rect
x="64"
y="32"
width="6"
height="6"
rx="1"
fill="#21262d"
/>
<rect
x="64"
y="40"
width="6"
height="6"
rx="1"
fill="#21262d"
/>
<rect
x="64"
y="48"
width="6"
height="6"
rx="1"
fill="#21262d"
/>
<rect
x="72"
y="0"
width="6"
height="6"
rx="1"
fill="#21262d"
/>
<rect
x="72"
y="8"
width="6"
height="6"
rx="1"
fill="#21262d"
/>
<rect
x="72"
y="16"
width="6"
height="6"
rx="1"
fill="#21262d"
/>
<rect
x="72"
y="24"
width="6"
height="6"
rx="1"
fill="#21262d"
/>
<rect
x="72"
y="32"
width="6"
height="6"
rx="1"
fill="#21262d"
/>
<rect
x="72"
y="40"
width="6"
height="6"
rx="1"
fill="#21262d"
/>
<rect
x="72"
y="48"
width="6"
height="6"
rx="1"
fill="#21262d"
/>
<rect
x="80"
y="0"
width="6"
height="6"
rx="1"
fill="#21262d"
/>
<rect
x="80"
y="8"
width="6"
height="6"
rx="1"
fill="#21262d"
/>
<rect
x="80"
y="16"
width="6"
height="6"
rx="1"
fill="#21262d"
/>
<rect
x="80"
y="24"
width="6"
height="6"
rx="1"
fill="#21262d"
/>
<rect
x="80"
y="32"
width="6"
height="6"
rx="1"
fill="#21262d"
/>
<rect
x="80"
y="40"
width="6"
height="6"
rx="1"
fill="#21262d"
/>
<rect
x="80"
y="48"
width="6"
height="6"
rx="1"
fill="#21262d"
/>
<rect
x="88"
y="0"
width="6"
height="6"
rx="1"
fill="#21262d"
/>
<rect
x="88"
y="8"
width="6"
height="6"
rx="1"
fill="#21262d"
/>
<rect
x="88"
y="16"
width="6"
height="6"
rx="1"
fill="#21262d"
/>
<rect
x="88"
y="24"
width="6"
height="6"
rx="1"
fill="#21262d"
/>
<rect
x="88"
y="32"
width="6"
height="6"
rx="1"
fill="#21262d"
/>
<rect
x="88"
y="40"
width="6"
height="6"
rx="1"
fill="#21262d"
/>
<rect
x="88"
y="48"
width="6"
height="6"
rx="1"
fill="#21262d"
/>
<rect
x="96"
y="0"
width="6"
height="6"
rx="1"
fill="#21262d"
/>
<rect
x="96"
y="8"
width="6"
height="6"
rx="1"
fill="#21262d"
/>
<rect
x="96"
y="16"
width="6"
height="6"
rx="1"
fill="#21262d"
/>
<rect
x="96"
y="24"
width="6"
height="6"
rx="1"
fill="#21262d"
/>
<rect
x="96"
y="32"
width="6"
height="6"
rx="1"
fill="#21262d"
/>
<rect
x="96"
y="40"
width="6"
height="6"
rx="1"
fill="#21262d"
/>
<rect
x="96"
y="48"
width="6"
height="6"
rx="1"
fill="#21262d"
/>
<rect
x="104"
y="0"
width="6"
height="6"
rx="1"
fill="#21262d"
/>
<rect
x="104"
y="8"
width="6"
height="6"
rx="1"
fill="#21262d"
/>
<rect
x="104"
y="16"
width="6"
height="6"
rx="1"
fill="#21262d"
/>
<rect
x="104"
y="24"
width="6"
height="6"
rx="1"
fill="#21262d"
/>
<rect
x="104"
y="32"
width="6"
height="6"
rx="1"
fill="#21262d"
/>
<rect
x="104"
y="40"
width="6"
height="6"
rx="1"
fill="#21262d"
/>
<rect
x="104"
y="48"
width="6"
height="6"
rx="1"
fill="#21262d"
/>
<rect
x="112"
y="0"
width="6"
height="6"
rx="1"
fill="#21262d"
/>
<rect
x="112"
y="8"
width="6"
height="6"
rx="1"
fill="#21262d"
/>
<rect
x="112"
y="16"
width="6"
height="6"
rx="1"
fill="#21262d"
/>
<rect
x="112"
y="24"
width="6"
height="6"
rx="1"
fill="#21262d"
/>
<rect
x="112"
y="32"
width="6"
height="6"
rx="1"
fill="#21262d"
/>
<rect
x="112"
y="40"
width="6"
height="6"
rx="1"
fill="#21262d"
/>
<rect
x="112"
y="48"
width="6"
height="6"
rx="1"
fill="#21262d"
/>
<rect
x="120"
y="0"
width="6"
height="6"
rx="1"
fill="#21262d"
/>
<rect
x="120"
y="8"
width="6"
height="6"
rx="1"
fill="#21262d"
/>
<rect
x="120"
y="16"
width="6"
height="6"
rx="1"
fill="#21262d"
/>
<rect
x="120"
y="24"
width="6"
height="6"
rx="1"
fill="#21262d"
/>
<rect
x="120"
y="32"
width="6"
height="6"
rx="1"
fill="#21262d"
/>
<rect
x="120"
y="40"
width="6"
height="6"
rx="1"
fill="#21262d"
/>
<rect
x="120"
y="48"
width="6"
height="6"
rx="1"
fill="#21262d"
/>
<rect
x="128"
y="0"
width="6"
height="6"
rx="1"
fill="#21262d"
/>
<rect
x="128"
y="8"
width="6"
height="6"
rx="1"
fill="#21262d"
/>
<rect
x="128"
y="16"
width="6"
height="6"
rx="1"
fill="#21262d"
/>
<rect
x="128"
y="24"
width="6"
height="6"
rx="1"
fill="#21262d"
/>
<rect
x="128"
y="32"
width="6"
height="6"
rx="1"
fill="#21262d"
/>
<rect
x="128"
y="40"
width="6"
height="6"
rx="1"
fill="#21262d"
/>
<rect
x="128"
y="48"
width="6"
height="6"
rx="1"
fill="#21262d"
/>
<rect
x="136"
y="0"
width="6"
height="6"
rx="1"
fill="#21262d"
/>
<rect
x="136"
y="8"
width="6"
height="6"
rx="1"
fill="#21262d"
/>
<rect
x="136"
y="16"
width="6"
height="6"
rx="1"
fill="#21262d"
/>
<rect
x="136"
y="24"
width="6"
height="6"
rx="1"
fill="#21262d"
/>
<rect
x="136"
y="32"
width="6"
height="6"
rx="1"
fill="#21262d"
/>
<rect
x="136"
y="40"
width="6"
height="6"
rx="1"
fill="#21262d"
/>
<rect
x="136"
y="48"
width="6"
height="6"
rx="1"
fill="#21262d"
/>
<rect
x="144"
y="0"
width="6"
height="6"
rx="1"
fill="#21262d"
/>
<rect
x="144"
y="8"
width="6"
height="6"
rx="1"
fill="#21262d"
/>
<rect
x="144"
y="16"
width="6"
height="6"
rx="1"
fill="#21262d"
/>
<rect
x="144"
y="24"
width="6"
height="6"
rx="1"
fill="#21262d"
/>
<rect
x="144"
y="32"
width="6"
height="6"
rx="1"
fill="#21262d"
/>
<rect
x="144"
y="40"
width="6"
height="6"
rx="1"
fill="#21262d"
/>
<rect
x="144"
y="48"
width="6"
height="6"
rx="1"
fill="#21262d"
/>
<rect
x="152"
y="0"
width="6"
height="6"
rx="1"
fill="#21262d"
/>
<rect
x="152"
y="8"
width="6"
height="6"
rx="1"
fill="#21262d"
/>
<rect
x="152"
y="16"
width="6"
height="6"
rx="1"
fill="#21262d"
/>
<rect
x="152"
y="24"
width="6"
height="6"
rx="1"
fill="#21262d"
/>
<rect
x="152"
y="32"
width="6"
height="6"
rx="1"
fill="#21262d"
/>
<rect
x="152"
y="40"
width="6"
height="6"
rx="1"
fill="#21262d"
/>
<rect
x="152"
y="48"
width="6"
height="6"
rx="1"
fill="#21262d"
/>
<rect
x="160"
y="0"
width="6"
height="6"
rx="1"
fill="#21262d"
/>
<rect
x="160"
y="8"
width="6"
height="6"
rx="1"
fill="#21262d"
/>
<rect
x="160"
y="16"
width="6"
height="6"
rx="1"
fill="#21262d"
/>
<rect
x="160"
y="24"
width="6"
height="6"
rx="1"
fill="#21262d"
/>
<rect
x="160"
y="32"
width="6"
height="6"
rx="1"
fill="#21262d"
/>
<rect
x="160"
y="40"
width="6"
height="6"
rx="1"
fill="#21262d"
/>
<rect
x="160"
y="48"
width="6"
height="6"
rx="1"
fill="#21262d"
/>
<rect
x="168"
y="0"
width="6"
height="6"
rx="1"
fill="#21262d"
/>
<rect
x="168"
y="8"
width="6"
height="6"
rx="1"
fill="#21262d"
/>
<rect
x="168"
y="16"
width="6"
height="6"
rx="1"
fill="#21262d"
/>
<rect
x="168"
y="24"
width="6"
height="6"
rx="1"
fill="#21262d"
/>
<rect
x="168"
y="32"
width="6"
height="6"
rx="1"
fill="#21262d"
/>
<rect
x="168"
y="40"
width="6"
height="6"
rx="1"
fill="#21262d"
/>
<rect
x="168"
y="48"
width="6"
height="6"
rx="1"
fill="#21262d"
/>
<rect
x="176"
y="0"
width="6"
height="6"
rx="1"
fill="#21262d"
/>
<rect
x="176"
y="8"
width="6"
height="6"
rx="1"
fill="#21262d"
/>
<rect
x="176"
y="16"
width="6"
height="6"
rx="1"
fill="#21262d"
/>
<rect
x="176"
y="24"
width="6"
height="6"
rx="1"
fill="#21262d"
/>
<rect
x="176"
y="32"
width="6"
height="6"
rx="1"
fill="#21262d"
/>
<rect
x="176"
y="40"
width="6"
height="6"
rx="1"
fill="#21262d"
/>
<rect
x="176"
y="48"
width="6"
height="6"
rx="1"
fill="#21262d"
/>
<rect
x="184"
y="0"
width="6"
height="6"
rx="1"
fill="#21262d"
/>
<rect
x="184"
y="8"
width="6"
height="6"
rx="1"
fill="#21262d"
/>
<rect
x="184"
y="16"
width="6"
height="6"
rx="1"
fill="#21262d"
/>
<rect
x="184"
y="24"
width="6"
height="6"
rx="1"
fill="#21262d"
/>
<rect
x="184"
y="32"
width="6"
height="6"
rx="1"
fill="#21262d"
/>
<rect
x="184"
y="40"
width="6"
height="6"
rx="1"
fill="#21262d"
/>
<rect
x="184"
y="48"
width="6"
height="6"
rx="1"
fill="#21262d"
/>
<rect
x="192"
y="0"
width="6"
height="6"
rx="1"
fill="#21262d"
/>
<rect
x="192"
y="8"
width="6"
height="6"
rx="1"
fill="#21262d"
/>
<rect
x="192"
y="16"
width="6"
height="6"
rx="1"
fill="#21262d"
/>
<rect
x="192"
y="24"
width="6"
height="6"
rx="1"
fill="#21262d"
/>
<rect
x="192"
y="32"
width="6"
height="6"
rx="1"
fill="#21262d"
/>
<rect
x="192"
y="40"
width="6"
height="6"
rx="1"
fill="#21262d"
/>
<rect
x="192"
y="48"
width="6"
height="6"
rx="1"
fill="#21262d"
/>
<rect
x="200"
y="0"
width="6"
height="6"
rx="1"
fill="#21262d"
/>
<rect
x="200"
y="8"
width="6"
height="6"
rx="1"
fill="#21262d"
/>
<rect
x="200"
y="16"
width="6"
height="6"
rx="1"
fill="#21262d"
/>
<rect
x="200"
y="24"
width="6"
height="6"
rx="1"
fill="#39d353"
/>
<rect
x="200"
y="32"
width="6"
height="6"
rx="1"
fill="#39d353"
/>
<rect
x="200"
y="40"
width="6"
height="6"
rx="1"
fill="#21262d"
/>
<rect
x="200"
y="48"
width="6"
height="6"
rx="1"
fill="#21262d"
/>
<rect
x="208"
y="0"
width="6"
height="6"
rx="1"
fill="#21262d"
/>
<rect
x="208"
y="8"
width="6"
height="6"
rx="1"
fill="#39d353"
/>
<rect
x="208"
y="16"
width="6"
height="6"
rx="1"
fill="#21262d"
/>
<rect
x="208"
y="24"
width="6"
height="6"
rx="1"
fill="#21262d"
/>
<rect
x="208"
y="32"
width="6"
height="6"
rx="1"
fill="#21262d"
/>
<rect
x="208"
y="40"
width="6"
height="6"
rx="1"
fill="#21262d"
/>
<rect
x="208"
y="48"
width="6"
height="6"
rx="1"
fill="#21262d"
/>
<rect
x="216"
y="0"
width="6"
height="6"
rx="1"
fill="#21262d"
/>
<rect
x="216"
y="8"
width="6"
height="6"
rx="1"
fill="#39d353"
/>
<rect
x="216"
y="16"
width="6"
height="6"
rx="1"
fill="#21262d"
/>
<rect
x="216"
y="24"
width="6"
height="6"
rx="1"
fill="#21262d"
/>
<rect
x="216"
y="32"
width="6"
height="6"
rx="1"
fill="#21262d"
/>
<rect
x="216"
y="40"
width="6"
height="6"
rx="1"
fill="#21262d"
/>
<rect
x="216"
y="48"
width="6"
height="6"
rx="1"
fill="#21262d"
/>
<rect
x="224"
y="0"
width="6"
height="6"
rx="1"
fill="#21262d"
/>
<rect
x="224"
y="8"
width="6"
height="6"
rx="1"
fill="#21262d"
/>
<rect
x="224"
y="16"
width="6"
height="6"
rx="1"
fill="#21262d"
/>
<rect
x="224"
y="24"
width="6"
height="6"
rx="1"
fill="#21262d"
/>
<rect
x="224"
y="32"
width="6"
height="6"
rx="1"
fill="#21262d"
/>
<rect
x="224"
y="40"
width="6"
height="6"
rx="1"
fill="#21262d"
/>
<rect
x="224"
y="48"
width="6"
height="6"
rx="1"
fill="#21262d"
/>
<rect
x="232"
y="0"
width="6"
height="6"
rx="1"
fill="#21262d"
/>
<rect
x="232"
y="8"
width="6"
height="6"
rx="1"
fill="#21262d"
/>
<rect
x="232"
y="16"
width="6"
height="6"
rx="1"
fill="#21262d"
/>
<rect
x="232"
y="24"
width="6"
height="6"
rx="1"
fill="#21262d"
/>
<rect
x="232"
y="32"
width="6"
height="6"
rx="1"
fill="#21262d"
/>
<rect
x="232"
y="40"
width="6"
height="6"
rx="1"
fill="#21262d"
/>
<rect
x="232"
y="48"
width="6"
height="6"
rx="1"
fill="#21262d"
/>
<rect
x="240"
y="0"
width="6"
height="6"
rx="1"
fill="#21262d"
/>
<rect
x="240"
y="8"
width="6"
height="6"
rx="1"
fill="#21262d"
/>
<rect
x="240"
y="16"
width="6"
height="6"
rx="1"
fill="#21262d"
/>
<rect
x="240"
y="24"
width="6"
height="6"
rx="1"
fill="#21262d"
/>
<rect
x="240"
y="32"
width="6"
height="6"
rx="1"
fill="#21262d"
/>
<rect
x="240"
y="40"
width="6"
height="6"
rx="1"
fill="#21262d"
/>
<rect
x="240"
y="48"
width="6"
height="6"
rx="1"
fill="#21262d"
/>
<rect
x="248"
y="0"
width="6"
height="6"
rx="1"
fill="#21262d"
/>
<rect
x="248"
y="8"
width="6"
height="6"
rx="1"
fill="#21262d"
/>
<rect
x="248"
y="16"
width="6"
height="6"
rx="1"
fill="#21262d"
/>
<rect
x="248"
y="24"
width="6"
height="6"
rx="1"
fill="#21262d"
/>
<rect
x="248"
y="32"
width="6"
height="6"
rx="1"
fill="#21262d"
/>
<rect
x="248"
y="40"
width="6"
height="6"
rx="1"
fill="#21262d"
/>
<rect
x="248"
y="48"
width="6"
height="6"
rx="1"
fill="#21262d"
/>
<rect
x="256"
y="0"
width="6"
height="6"
rx="1"
fill="#21262d"
/>
<rect
x="256"
y="8"
width="6"
height="6"
rx="1"
fill="#21262d"
/>
<rect
x="256"
y="16"
width="6"
height="6"
rx="1"
fill="#21262d"
/>
<rect
x="256"
y="24"
width="6"
height="6"
rx="1"
fill="#21262d"
/>
<rect
x="256"
y="32"
width="6"
height="6"
rx="1"
fill="#21262d"
/>
<rect
x="256"
y="40"
width="6"
height="6"
rx="1"
fill="#21262d"
/>
<rect
x="256"
y="48"
width="6"
height="6"
rx="1"
fill="#21262d"
/>
<rect
x="264"
y="0"
width="6"
height="6"
rx="1"
fill="#21262d"
/>
<rect
x="264"
y="8"
width="6"
height="6"
rx="1"
fill="#21262d"
/>
<rect
x="264"
y="16"
width="6"
height="6"
rx="1"
fill="#21262d"
/>
<rect
x="264"
y="24"
width="6"
height="6"
rx="1"
fill="#21262d"
/>
<rect
x="264"
y="32"
width="6"
height="6"
rx="1"
fill="#21262d"
/>
<rect
x="264"
y="40"
width="6"
height="6"
rx="1"
fill="#21262d"
/>
<rect
x="264"
y="48"
width="6"
height="6"
rx="1"
fill="#21262d"
/>
<rect
x="272"
y="0"
width="6"
height="6"
rx="1"
fill="#21262d"
/>
<rect
x="272"
y="8"
width="6"
height="6"
rx="1"
fill="#21262d"
/>
<rect
x="272"
y="16"
width="6"
height="6"
rx="1"
fill="#21262d"
/>
<rect
x="272"
y="24"
width="6"
height="6"
rx="1"
fill="#21262d"
/>
<rect
x="272"
y="32"
width="6"
height="6"
rx="1"
fill="#21262d"
/>
<rect
x="272"
y="40"
width="6"
height="6"
rx="1"
fill="#21262d"
/>
<rect
x="272"
y="48"
width="6"
height="6"
rx="1"
fill="#21262d"
/>
<rect
x="280"
y="0"
width="6"
height="6"
rx="1"
fill="#21262d"
/>
<rect
x="280"
y="8"
width="6"
height="6"
rx="1"
fill="#21262d"
/>
<rect
x="280"
y="16"
width="6"
height="6"
rx="1"
fill="#21262d"
/>
<rect
x="280"
y="24"
width="6"
height="6"
rx="1"
fill="#21262d"
/>
<rect
x="280"
y="32"
width="6"
height="6"
rx="1"
fill="#21262d"
/>
<rect
x="280"
y="40"
width="6"
height="6"
rx="1"
fill="#21262d"
/>
<rect
x="280"
y="48"
width="6"
height="6"
rx="1"
fill="#21262d"
/>
<rect
x="288"
y="0"
width="6"
height="6"
rx="1"
fill="#21262d"
/>
<rect
x="288"
y="8"
width="6"
height="6"
rx="1"
fill="#21262d"
/>
<rect
x="288"
y="16"
width="6"
height="6"
rx="1"
fill="#21262d"
/>
<rect
x="288"
y="24"
width="6"
height="6"
rx="1"
fill="#21262d"
/>
<rect
x="288"
y="32"
width="6"
height="6"
rx="1"
fill="#21262d"
/>
<rect
x="288"
y="40"
width="6"
height="6"
rx="1"
fill="#21262d"
/>
<rect
x="288"
y="48"
width="6"
height="6"
rx="1"
fill="#21262d"
/>
<rect
x="296"
y="0"
width="6"
height="6"
rx="1"
fill="#21262d"
/>
<rect
x="296"
y="8"
width="6"
height="6"
rx="1"
fill="#21262d"
/>
<rect
x="296"
y="16"
width="6"
height="6"
rx="1"
fill="#21262d"
/>
<rect
x="296"
y="24"
width="6"
height="6"
rx="1"
fill="#39d353"
/>
<rect
x="296"
y="32"
width="6"
height="6"
rx="1"
fill="#39d353"
/>
<rect
x="296"
y="40"
width="6"
height="6"
rx="1"
fill="#21262d"
/>
<rect
x="296"
y="48"
width="6"
height="6"
rx="1"
fill="#39d353"
/>
<rect
x="304"
y="0"
width="6"
height="6"
rx="1"
fill="#21262d"
/>
<rect
x="304"
y="8"
width="6"
height="6"
rx="1"
fill="#21262d"
/>
<rect
x="304"
y="16"
width="6"
height="6"
rx="1"
fill="#21262d"
/>
<rect
x="304"
y="24"
width="6"
height="6"
rx="1"
fill="#39d353"
/>
<rect
x="304"
y="32"
width="6"
height="6"
rx="1"
fill="#21262d"
/>
<rect
x="304"
y="40"
width="6"
height="6"
rx="1"
fill="#39d353"
/>
<rect
x="304"
y="48"
width="6"
height="6"
rx="1"
fill="#21262d"
/>
<rect
x="312"
y="0"
width="6"
height="6"
rx="1"
fill="#21262d"
/>
<rect
x="312"
y="8"
width="6"
height="6"
rx="1"
fill="#39d353"
/>
<rect
x="312"
y="16"
width="6"
height="6"
rx="1"
fill="#39d353"
/>
<rect
x="312"
y="24"
width="6"
height="6"
rx="1"
fill="#21262d"
/>
<rect
x="312"
y="32"
width="6"
height="6"
rx="1"
fill="#21262d"
/>
<rect
x="312"
y="40"
width="6"
height="6"
rx="1"
fill="#21262d"
/>
<rect
x="312"
y="48"
width="6"
height="6"
rx="1"
fill="#21262d"
/>
<rect
x="320"
y="0"
width="6"
height="6"
rx="1"
fill="#21262d"
/>
<rect
x="320"
y="8"
width="6"
height="6"
rx="1"
fill="#21262d"
/>
<rect
x="320"
y="16"
width="6"
height="6"
rx="1"
fill="#21262d"
/>
<rect
x="320"
y="24"
width="6"
height="6"
rx="1"
fill="#39d353"
/>
<rect
x="320"
y="32"
width="6"
height="6"
rx="1"
fill="#21262d"
/>
<rect
x="320"
y="40"
width="6"
height="6"
rx="1"
fill="#39d353"
/>
<rect
x="320"
y="48"
width="6"
height="6"
rx="1"
fill="#21262d"
/>
<rect
x="328"
y="0"
width="6"
height="6"
rx="1"
fill="#21262d"
/>
<rect
x="328"
y="8"
width="6"
height="6"
rx="1"
fill="#21262d"
/>
<rect
x="328"
y="16"
width="6"
height="6"
rx="1"
fill="#21262d"
/>
<rect
x="328"
y="24"
width="6"
height="6"
rx="1"
fill="#21262d"
/>
<rect
x="328"
y="32"
width="6"
height="6"
rx="1"
fill="#21262d"
/>
<rect
x="328"
y="40"
width="6"
height="6"
rx="1"
fill="#21262d"
/>
<rect
x="328"
y="48"
width="6"
height="6"
rx="1"
fill="#39d353"
/>
<rect
x="336"
y="0"
width="6"
height="6"
rx="1"
fill="#39d353"
/>
<rect
x="336"
y="8"
width="6"
height="6"
rx="1"
fill="#39d353"
/>
<rect
x="336"
y="16"
width="6"
height="6"
rx="1"
fill="#39d353"
/>
<rect
x="336"
y="24"
width="6"
height="6"
rx="1"
fill="#39d353"
/>
<rect
x="336"
y="32"
width="6"
height="6"
rx="1"
fill="#39d353"
/>
<rect
x="336"
y="40"
width="6"
height="6"
rx="1"
fill="#21262d"
/>
<rect
x="336"
y="48"
width="6"
height="6"
rx="1"
fill="#39d353"
/>
<rect
x="344"
y="0"
width="6"
height="6"
rx="1"
fill="#39d353"
/>
<rect
x="344"
y="8"
width="6"
height="6"
rx="1"
fill="#39d353"
/>
<rect
x="344"
y="16"
width="6"
height="6"
rx="1"
fill="#21262d"
/>
<rect
x="344"
y="24"
width="6"
height="6"
rx="1"
fill="#21262d"
/>
<rect
x="344"
y="32"
width="6"
height="6"
rx="1"
fill="#39d353"
/>
<rect
x="344"
y="40"
width="6"
height="6"
rx="1"
fill="#21262d"
/>
<rect
x="344"
y="48"
width="6"
height="6"
rx="1"
fill="#21262d"
/>
<rect
x="352"
y="0"
width="6"
height="6"
rx="1"
fill="#39d353"
/>
<rect
x="352"
y="8"
width="6"
height="6"
rx="1"
fill="#39d353"
/>
<rect
x="352"
y="16"
width="6"
height="6"
rx="1"
fill="#39d353"
/>
<rect
x="352"
y="24"
width="6"
height="6"
rx="1"
fill="#21262d"
/>
<rect
x="352"
y="32"
width="6"
height="6"
rx="1"
fill="#21262d"
/>
<rect
x="352"
y="40"
width="6"
height="6"
rx="1"
fill="#21262d"
/>
<rect
x="352"
y="48"
width="6"
height="6"
rx="1"
fill="#21262d"
/>
<rect
x="360"
y="0"
width="6"
height="6"
rx="1"
fill="#21262d"
/>
<rect
x="360"
y="8"
width="6"
height="6"
rx="1"
fill="#21262d"
/>
<rect
x="360"
y="16"
width="6"
height="6"
rx="1"
fill="#21262d"
/>
<rect
x="360"
y="24"
width="6"
height="6"
rx="1"
fill="#21262d"
/>
<rect
x="360"
y="32"
width="6"
height="6"
rx="1"
fill="#39d353"
/>
<rect
x="360"
y="40"
width="6"
height="6"
rx="1"
fill="#39d353"
/>
<rect
x="360"
y="48"
width="6"
height="6"
rx="1"
fill="#21262d"
/>
<rect
x="368"
y="0"
width="6"
height="6"
rx="1"
fill="#39d353"
/>
<rect
x="368"
y="8"
width="6"
height="6"
rx="1"
fill="#39d353"
/>
<rect
x="368"
y="16"
width="6"
height="6"
rx="1"
fill="#39d353"
/>
<rect
x="368"
y="24"
width="6"
height="6"
rx="1"
fill="#39d353"
/>
<rect
x="368"
y="32"
width="6"
height="6"
rx="1"
fill="#39d353"
/>
<rect
x="368"
y="40"
width="6"
height="6"
rx="1"
fill="#39d353"
/>
<rect
x="368"
y="48"
width="6"
height="6"
rx="1"
fill="#21262d"
/>
<rect
x="376"
y="0"
width="6"
height="6"
rx="1"
fill="#21262d"
/>
<rect
x="376"
y="8"
width="6"
height="6"
rx="1"
fill="#21262d"
/>
<rect
x="376"
y="16"
width="6"
height="6"
rx="1"
fill="#21262d"
/>
<rect
x="376"
y="24"
width="6"
height="6"
rx="1"
fill="#21262d"
/>
<rect
x="376"
y="32"
width="6"
height="6"
rx="1"
fill="#39d353"
/>
<rect
x="376"
y="40"
width="6"
height="6"
rx="1"
fill="#39d353"
/>
<rect
x="376"
y="48"
width="6"
height="6"
rx="1"
fill="#21262d"
/>
<rect
x="384"
y="0"
width="6"
height="6"
rx="1"
fill="#21262d"
/>
<rect
x="384"
y="8"
width="6"
height="6"
rx="1"
fill="#21262d"
/>
<rect
x="384"
y="16"
width="6"
height="6"
rx="1"
fill="#39d353"
/>
<rect
x="384"
y="24"
width="6"
height="6"
rx="1"
fill="#39d353"
/>
<rect
x="384"
y="32"
width="6"
height="6"
rx="1"
fill="#39d353"
/>
<rect
x="384"
y="40"
width="6"
height="6"
rx="1"
fill="#39d353"
/>
<rect
x="384"
y="48"
width="6"
height="6"
rx="1"
fill="#39d353"
/>
<rect
x="392"
y="0"
width="6"
height="6"
rx="1"
fill="#39d353"
/>
<rect
x="392"
y="8"
width="6"
height="6"
rx="1"
fill="#39d353"
/>
<rect
x="392"
y="16"
width="6"
height="6"
rx="1"
fill="#39d353"
/>
<rect
x="392"
y="24"
width="6"
height="6"
rx="1"
fill="#39d353"
/>
<rect
x="392"
y="32"
width="6"
height="6"
rx="1"
fill="#39d353"
/>
<rect
x="392"
y="40"
width="6"
height="6"
rx="1"
fill="#39d353"
/>
<rect
x="392"
y="48"
width="6"
height="6"
rx="1"
fill="#39d353"
/>
<rect
x="400"
y="0"
width="6"
height="6"
rx="1"
fill="#39d353"
/>
<rect
x="400"
y="8"
width="6"
height="6"
rx="1"
fill="#39d353"
/>
<rect
x="400"
y="16"
width="6"
height="6"
rx="1"
fill="#39d353"
/>
<rect
x="400"
y="24"
width="6"
height="6"
rx="1"
fill="#39d353"
/>
<rect
x="400"
y="32"
width="6"
height="6"
rx="1"
fill="#39d353"
/>
<rect
x="400"
y="40"
width="6"
height="6"
rx="1"
fill="#39d353"
/>
<rect
x="400"
y="48"
width="6"
height="6"
rx="1"
fill="#39d353"
/>
<rect
x="408"
y="0"
width="6"
height="6"
rx="1"
fill="#39d353"
/>
<rect
x="408"
y="8"
width="6"
height="6"
rx="1"
fill="#39d353"
/>
<rect
x="408"
y="16"
width="6"
height="6"
rx="1"
fill="#39d353"
/>
<rect
x="408"
y="24"
width="6"
height="6"
rx="1"
fill="#39d353"
/>
<rect
x="408"
y="32"
width="6"
height="6"
rx="1"
fill="#39d353"
/>
<rect
x="408"
y="40"
width="6"
height="6"
rx="1"
fill="#39d353"
/>
<rect
x="408"
y="48"
width="6"
height="6"
rx="1"
fill="#39d353"
/>
<rect
x="416"
y="0"
width="6"
height="6"
rx="1"
fill="#39d353"
/>
<rect
x="416"
y="8"
width="6"
height="6"
rx="1"
fill="#39d353"
/>
<rect
x="416"
y="16"
width="6"
height="6"
rx="1"
fill="#39d353"
/>
<rect
x="416"
y="24"
width="6"
height="6"
rx="1"
fill="#39d353"
/>
<rect
x="416"
y="32"
width="6"
height="6"
rx="1"
fill="#39d353"
/>
<rect
x="416"
y="40"
width="6"
height="6"
rx="1"
fill="#39d353"
/>
<rect
x="416"
y="48"
width="6"
height="6"
rx="1"
fill="#21262d"
/>
</g>

</svg>
