
<svg viewBox="0 0 900 1100" width="100%" xmlns="http://www.w3.org/2000/svg">

<defs>
<linearGradient id="bg" x1="0" y1="0" x2="1" y2="1">
<stop offset="0%" stop-color="#0d1117" />
<stop offset="100%" stop-color="#161b22" />
</linearGradient>
</defs>

<rect width="100%" height="100%" rx="20" fill="url(#bg)" stroke="#30363d" />

<text x="32" y="48" fill="#58a6ff" font-size="26" font-weight="700">
🚀 GitInsight Profile
</text>


  <g transform="translate(32, 70)">
  
    <rect
      width="390"
      height="140"
      rx="14"
      fill="#0d1117"
      stroke="#30363d"
    />
  
    <text
      x="20"
      y="30"
      fill="#58a6ff"
      font-size="17"
      font-weight="600">
      📊 Overview
    </text>
  
    <g transform="translate(0,0)">
      
<text x="20" y="60" fill="#c9d1d9">📦 Repositories: 16</text>
<text x="20" y="80" fill="#c9d1d9">⭐ Stars: 1</text>
<text x="20" y="100" fill="#c9d1d9">🍴 Forks: 0</text>
<text x="20" y="120" fill="#c9d1d9">🔥 Contributions: 338</text>

    </g>
  
  </g>
  


  <g transform="translate(458, 70)">
  
    <rect
      width="390"
      height="140"
      rx="14"
      fill="#0d1117"
      stroke="#30363d"
    />
  
    <text
      x="20"
      y="30"
      fill="#58a6ff"
      font-size="17"
      font-weight="600">
      💻 Code Activity
    </text>
  
    <g transform="translate(0,0)">
      
<text x="20" y="60" fill="#c9d1d9">➕ Lines Added: 352781</text>
<text x="20" y="80" fill="#c9d1d9">➖ Lines Deleted: 277221</text>
<text x="20" y="100" fill="#c9d1d9">📈 Net Lines: 75560</text>

    </g>
  
  </g>
  


  <g transform="translate(32, 250)">
  
    <rect
      width="390"
      height="140"
      rx="14"
      fill="#0d1117"
      stroke="#30363d"
    />
  
    <text
      x="20"
      y="30"
      fill="#58a6ff"
      font-size="17"
      font-weight="600">
      🧠 Developer Insights
    </text>
  
    <g transform="translate(0,0)">
      
<text x="20" y="60" fill="#c9d1d9">🏆 Top Repo: CoreGPT</text>
<text x="20" y="80" fill="#c9d1d9">📊 Total Commits: 615</text>

    </g>
  
  </g>
  


  <g transform="translate(458, 250)">
  
    <rect
      width="390"
      height="140"
      rx="14"
      fill="#0d1117"
      stroke="#30363d"
    />
  
    <text
      x="20"
      y="30"
      fill="#58a6ff"
      font-size="17"
      font-weight="600">
      🌐 Traffic Analytics
    </text>
  
    <g transform="translate(0,0)">
      
<text x="20" y="60" fill="#c9d1d9">👀 Views: 229</text>
<text x="20" y="80" fill="#c9d1d9">🧑 Visitors: 27</text>

    </g>
  
  </g>
  


  <g transform="translate(32, 430)">
  
    <rect
      width="390"
      height="260"
      rx="14"
      fill="#0d1117"
      stroke="#30363d"
    />
  
    <text
      x="20"
      y="30"
      fill="#58a6ff"
      font-size="17"
      font-weight="600">
      🔥 Contribution Heatmap
    </text>
  
    <g transform="translate(0,0)">
      
<g transform="translate(20,60) scale(0.61)">

<rect
x="0"
y="0"
width="9"
height="9"
rx="2"
fill="#21262d"
/>
<rect
x="0"
y="12"
width="9"
height="9"
rx="2"
fill="#21262d"
/>
<rect
x="0"
y="24"
width="9"
height="9"
rx="2"
fill="#21262d"
/>
<rect
x="0"
y="36"
width="9"
height="9"
rx="2"
fill="#21262d"
/>
<rect
x="0"
y="48"
width="9"
height="9"
rx="2"
fill="#21262d"
/>
<rect
x="0"
y="60"
width="9"
height="9"
rx="2"
fill="#21262d"
/>
<rect
x="0"
y="72"
width="9"
height="9"
rx="2"
fill="#21262d"
/>
<rect
x="12"
y="0"
width="9"
height="9"
rx="2"
fill="#21262d"
/>
<rect
x="12"
y="12"
width="9"
height="9"
rx="2"
fill="#21262d"
/>
<rect
x="12"
y="24"
width="9"
height="9"
rx="2"
fill="#21262d"
/>
<rect
x="12"
y="36"
width="9"
height="9"
rx="2"
fill="#21262d"
/>
<rect
x="12"
y="48"
width="9"
height="9"
rx="2"
fill="#21262d"
/>
<rect
x="12"
y="60"
width="9"
height="9"
rx="2"
fill="#21262d"
/>
<rect
x="12"
y="72"
width="9"
height="9"
rx="2"
fill="#21262d"
/>
<rect
x="24"
y="0"
width="9"
height="9"
rx="2"
fill="#21262d"
/>
<rect
x="24"
y="12"
width="9"
height="9"
rx="2"
fill="#21262d"
/>
<rect
x="24"
y="24"
width="9"
height="9"
rx="2"
fill="#21262d"
/>
<rect
x="24"
y="36"
width="9"
height="9"
rx="2"
fill="#21262d"
/>
<rect
x="24"
y="48"
width="9"
height="9"
rx="2"
fill="#21262d"
/>
<rect
x="24"
y="60"
width="9"
height="9"
rx="2"
fill="#21262d"
/>
<rect
x="24"
y="72"
width="9"
height="9"
rx="2"
fill="#21262d"
/>
<rect
x="36"
y="0"
width="9"
height="9"
rx="2"
fill="#21262d"
/>
<rect
x="36"
y="12"
width="9"
height="9"
rx="2"
fill="#21262d"
/>
<rect
x="36"
y="24"
width="9"
height="9"
rx="2"
fill="#21262d"
/>
<rect
x="36"
y="36"
width="9"
height="9"
rx="2"
fill="#21262d"
/>
<rect
x="36"
y="48"
width="9"
height="9"
rx="2"
fill="#21262d"
/>
<rect
x="36"
y="60"
width="9"
height="9"
rx="2"
fill="#21262d"
/>
<rect
x="36"
y="72"
width="9"
height="9"
rx="2"
fill="#21262d"
/>
<rect
x="48"
y="0"
width="9"
height="9"
rx="2"
fill="#21262d"
/>
<rect
x="48"
y="12"
width="9"
height="9"
rx="2"
fill="#21262d"
/>
<rect
x="48"
y="24"
width="9"
height="9"
rx="2"
fill="#21262d"
/>
<rect
x="48"
y="36"
width="9"
height="9"
rx="2"
fill="#21262d"
/>
<rect
x="48"
y="48"
width="9"
height="9"
rx="2"
fill="#21262d"
/>
<rect
x="48"
y="60"
width="9"
height="9"
rx="2"
fill="#21262d"
/>
<rect
x="48"
y="72"
width="9"
height="9"
rx="2"
fill="#21262d"
/>
<rect
x="60"
y="0"
width="9"
height="9"
rx="2"
fill="#21262d"
/>
<rect
x="60"
y="12"
width="9"
height="9"
rx="2"
fill="#21262d"
/>
<rect
x="60"
y="24"
width="9"
height="9"
rx="2"
fill="#21262d"
/>
<rect
x="60"
y="36"
width="9"
height="9"
rx="2"
fill="#21262d"
/>
<rect
x="60"
y="48"
width="9"
height="9"
rx="2"
fill="#21262d"
/>
<rect
x="60"
y="60"
width="9"
height="9"
rx="2"
fill="#21262d"
/>
<rect
x="60"
y="72"
width="9"
height="9"
rx="2"
fill="#21262d"
/>
<rect
x="72"
y="0"
width="9"
height="9"
rx="2"
fill="#21262d"
/>
<rect
x="72"
y="12"
width="9"
height="9"
rx="2"
fill="#21262d"
/>
<rect
x="72"
y="24"
width="9"
height="9"
rx="2"
fill="#21262d"
/>
<rect
x="72"
y="36"
width="9"
height="9"
rx="2"
fill="#21262d"
/>
<rect
x="72"
y="48"
width="9"
height="9"
rx="2"
fill="#21262d"
/>
<rect
x="72"
y="60"
width="9"
height="9"
rx="2"
fill="#21262d"
/>
<rect
x="72"
y="72"
width="9"
height="9"
rx="2"
fill="#21262d"
/>
<rect
x="84"
y="0"
width="9"
height="9"
rx="2"
fill="#21262d"
/>
<rect
x="84"
y="12"
width="9"
height="9"
rx="2"
fill="#21262d"
/>
<rect
x="84"
y="24"
width="9"
height="9"
rx="2"
fill="#21262d"
/>
<rect
x="84"
y="36"
width="9"
height="9"
rx="2"
fill="#21262d"
/>
<rect
x="84"
y="48"
width="9"
height="9"
rx="2"
fill="#21262d"
/>
<rect
x="84"
y="60"
width="9"
height="9"
rx="2"
fill="#21262d"
/>
<rect
x="84"
y="72"
width="9"
height="9"
rx="2"
fill="#21262d"
/>
<rect
x="96"
y="0"
width="9"
height="9"
rx="2"
fill="#21262d"
/>
<rect
x="96"
y="12"
width="9"
height="9"
rx="2"
fill="#21262d"
/>
<rect
x="96"
y="24"
width="9"
height="9"
rx="2"
fill="#21262d"
/>
<rect
x="96"
y="36"
width="9"
height="9"
rx="2"
fill="#21262d"
/>
<rect
x="96"
y="48"
width="9"
height="9"
rx="2"
fill="#21262d"
/>
<rect
x="96"
y="60"
width="9"
height="9"
rx="2"
fill="#21262d"
/>
<rect
x="96"
y="72"
width="9"
height="9"
rx="2"
fill="#21262d"
/>
<rect
x="108"
y="0"
width="9"
height="9"
rx="2"
fill="#21262d"
/>
<rect
x="108"
y="12"
width="9"
height="9"
rx="2"
fill="#21262d"
/>
<rect
x="108"
y="24"
width="9"
height="9"
rx="2"
fill="#21262d"
/>
<rect
x="108"
y="36"
width="9"
height="9"
rx="2"
fill="#21262d"
/>
<rect
x="108"
y="48"
width="9"
height="9"
rx="2"
fill="#21262d"
/>
<rect
x="108"
y="60"
width="9"
height="9"
rx="2"
fill="#21262d"
/>
<rect
x="108"
y="72"
width="9"
height="9"
rx="2"
fill="#21262d"
/>
<rect
x="120"
y="0"
width="9"
height="9"
rx="2"
fill="#21262d"
/>
<rect
x="120"
y="12"
width="9"
height="9"
rx="2"
fill="#21262d"
/>
<rect
x="120"
y="24"
width="9"
height="9"
rx="2"
fill="#21262d"
/>
<rect
x="120"
y="36"
width="9"
height="9"
rx="2"
fill="#21262d"
/>
<rect
x="120"
y="48"
width="9"
height="9"
rx="2"
fill="#21262d"
/>
<rect
x="120"
y="60"
width="9"
height="9"
rx="2"
fill="#21262d"
/>
<rect
x="120"
y="72"
width="9"
height="9"
rx="2"
fill="#21262d"
/>
<rect
x="132"
y="0"
width="9"
height="9"
rx="2"
fill="#21262d"
/>
<rect
x="132"
y="12"
width="9"
height="9"
rx="2"
fill="#21262d"
/>
<rect
x="132"
y="24"
width="9"
height="9"
rx="2"
fill="#21262d"
/>
<rect
x="132"
y="36"
width="9"
height="9"
rx="2"
fill="#21262d"
/>
<rect
x="132"
y="48"
width="9"
height="9"
rx="2"
fill="#21262d"
/>
<rect
x="132"
y="60"
width="9"
height="9"
rx="2"
fill="#21262d"
/>
<rect
x="132"
y="72"
width="9"
height="9"
rx="2"
fill="#21262d"
/>
<rect
x="144"
y="0"
width="9"
height="9"
rx="2"
fill="#21262d"
/>
<rect
x="144"
y="12"
width="9"
height="9"
rx="2"
fill="#21262d"
/>
<rect
x="144"
y="24"
width="9"
height="9"
rx="2"
fill="#21262d"
/>
<rect
x="144"
y="36"
width="9"
height="9"
rx="2"
fill="#21262d"
/>
<rect
x="144"
y="48"
width="9"
height="9"
rx="2"
fill="#21262d"
/>
<rect
x="144"
y="60"
width="9"
height="9"
rx="2"
fill="#21262d"
/>
<rect
x="144"
y="72"
width="9"
height="9"
rx="2"
fill="#21262d"
/>
<rect
x="156"
y="0"
width="9"
height="9"
rx="2"
fill="#21262d"
/>
<rect
x="156"
y="12"
width="9"
height="9"
rx="2"
fill="#21262d"
/>
<rect
x="156"
y="24"
width="9"
height="9"
rx="2"
fill="#21262d"
/>
<rect
x="156"
y="36"
width="9"
height="9"
rx="2"
fill="#21262d"
/>
<rect
x="156"
y="48"
width="9"
height="9"
rx="2"
fill="#21262d"
/>
<rect
x="156"
y="60"
width="9"
height="9"
rx="2"
fill="#21262d"
/>
<rect
x="156"
y="72"
width="9"
height="9"
rx="2"
fill="#21262d"
/>
<rect
x="168"
y="0"
width="9"
height="9"
rx="2"
fill="#21262d"
/>
<rect
x="168"
y="12"
width="9"
height="9"
rx="2"
fill="#21262d"
/>
<rect
x="168"
y="24"
width="9"
height="9"
rx="2"
fill="#21262d"
/>
<rect
x="168"
y="36"
width="9"
height="9"
rx="2"
fill="#21262d"
/>
<rect
x="168"
y="48"
width="9"
height="9"
rx="2"
fill="#21262d"
/>
<rect
x="168"
y="60"
width="9"
height="9"
rx="2"
fill="#21262d"
/>
<rect
x="168"
y="72"
width="9"
height="9"
rx="2"
fill="#21262d"
/>
<rect
x="180"
y="0"
width="9"
height="9"
rx="2"
fill="#21262d"
/>
<rect
x="180"
y="12"
width="9"
height="9"
rx="2"
fill="#21262d"
/>
<rect
x="180"
y="24"
width="9"
height="9"
rx="2"
fill="#21262d"
/>
<rect
x="180"
y="36"
width="9"
height="9"
rx="2"
fill="#21262d"
/>
<rect
x="180"
y="48"
width="9"
height="9"
rx="2"
fill="#21262d"
/>
<rect
x="180"
y="60"
width="9"
height="9"
rx="2"
fill="#21262d"
/>
<rect
x="180"
y="72"
width="9"
height="9"
rx="2"
fill="#21262d"
/>
<rect
x="192"
y="0"
width="9"
height="9"
rx="2"
fill="#21262d"
/>
<rect
x="192"
y="12"
width="9"
height="9"
rx="2"
fill="#21262d"
/>
<rect
x="192"
y="24"
width="9"
height="9"
rx="2"
fill="#21262d"
/>
<rect
x="192"
y="36"
width="9"
height="9"
rx="2"
fill="#21262d"
/>
<rect
x="192"
y="48"
width="9"
height="9"
rx="2"
fill="#21262d"
/>
<rect
x="192"
y="60"
width="9"
height="9"
rx="2"
fill="#21262d"
/>
<rect
x="192"
y="72"
width="9"
height="9"
rx="2"
fill="#21262d"
/>
<rect
x="204"
y="0"
width="9"
height="9"
rx="2"
fill="#21262d"
/>
<rect
x="204"
y="12"
width="9"
height="9"
rx="2"
fill="#21262d"
/>
<rect
x="204"
y="24"
width="9"
height="9"
rx="2"
fill="#21262d"
/>
<rect
x="204"
y="36"
width="9"
height="9"
rx="2"
fill="#21262d"
/>
<rect
x="204"
y="48"
width="9"
height="9"
rx="2"
fill="#21262d"
/>
<rect
x="204"
y="60"
width="9"
height="9"
rx="2"
fill="#21262d"
/>
<rect
x="204"
y="72"
width="9"
height="9"
rx="2"
fill="#21262d"
/>
<rect
x="216"
y="0"
width="9"
height="9"
rx="2"
fill="#21262d"
/>
<rect
x="216"
y="12"
width="9"
height="9"
rx="2"
fill="#21262d"
/>
<rect
x="216"
y="24"
width="9"
height="9"
rx="2"
fill="#21262d"
/>
<rect
x="216"
y="36"
width="9"
height="9"
rx="2"
fill="#21262d"
/>
<rect
x="216"
y="48"
width="9"
height="9"
rx="2"
fill="#21262d"
/>
<rect
x="216"
y="60"
width="9"
height="9"
rx="2"
fill="#21262d"
/>
<rect
x="216"
y="72"
width="9"
height="9"
rx="2"
fill="#21262d"
/>
<rect
x="228"
y="0"
width="9"
height="9"
rx="2"
fill="#21262d"
/>
<rect
x="228"
y="12"
width="9"
height="9"
rx="2"
fill="#21262d"
/>
<rect
x="228"
y="24"
width="9"
height="9"
rx="2"
fill="#21262d"
/>
<rect
x="228"
y="36"
width="9"
height="9"
rx="2"
fill="#21262d"
/>
<rect
x="228"
y="48"
width="9"
height="9"
rx="2"
fill="#21262d"
/>
<rect
x="228"
y="60"
width="9"
height="9"
rx="2"
fill="#21262d"
/>
<rect
x="228"
y="72"
width="9"
height="9"
rx="2"
fill="#21262d"
/>
<rect
x="240"
y="0"
width="9"
height="9"
rx="2"
fill="#21262d"
/>
<rect
x="240"
y="12"
width="9"
height="9"
rx="2"
fill="#21262d"
/>
<rect
x="240"
y="24"
width="9"
height="9"
rx="2"
fill="#21262d"
/>
<rect
x="240"
y="36"
width="9"
height="9"
rx="2"
fill="#21262d"
/>
<rect
x="240"
y="48"
width="9"
height="9"
rx="2"
fill="#21262d"
/>
<rect
x="240"
y="60"
width="9"
height="9"
rx="2"
fill="#21262d"
/>
<rect
x="240"
y="72"
width="9"
height="9"
rx="2"
fill="#21262d"
/>
<rect
x="252"
y="0"
width="9"
height="9"
rx="2"
fill="#21262d"
/>
<rect
x="252"
y="12"
width="9"
height="9"
rx="2"
fill="#21262d"
/>
<rect
x="252"
y="24"
width="9"
height="9"
rx="2"
fill="#21262d"
/>
<rect
x="252"
y="36"
width="9"
height="9"
rx="2"
fill="#21262d"
/>
<rect
x="252"
y="48"
width="9"
height="9"
rx="2"
fill="#21262d"
/>
<rect
x="252"
y="60"
width="9"
height="9"
rx="2"
fill="#21262d"
/>
<rect
x="252"
y="72"
width="9"
height="9"
rx="2"
fill="#21262d"
/>
<rect
x="264"
y="0"
width="9"
height="9"
rx="2"
fill="#21262d"
/>
<rect
x="264"
y="12"
width="9"
height="9"
rx="2"
fill="#21262d"
/>
<rect
x="264"
y="24"
width="9"
height="9"
rx="2"
fill="#21262d"
/>
<rect
x="264"
y="36"
width="9"
height="9"
rx="2"
fill="#21262d"
/>
<rect
x="264"
y="48"
width="9"
height="9"
rx="2"
fill="#21262d"
/>
<rect
x="264"
y="60"
width="9"
height="9"
rx="2"
fill="#21262d"
/>
<rect
x="264"
y="72"
width="9"
height="9"
rx="2"
fill="#21262d"
/>
<rect
x="276"
y="0"
width="9"
height="9"
rx="2"
fill="#21262d"
/>
<rect
x="276"
y="12"
width="9"
height="9"
rx="2"
fill="#21262d"
/>
<rect
x="276"
y="24"
width="9"
height="9"
rx="2"
fill="#21262d"
/>
<rect
x="276"
y="36"
width="9"
height="9"
rx="2"
fill="#21262d"
/>
<rect
x="276"
y="48"
width="9"
height="9"
rx="2"
fill="#21262d"
/>
<rect
x="276"
y="60"
width="9"
height="9"
rx="2"
fill="#21262d"
/>
<rect
x="276"
y="72"
width="9"
height="9"
rx="2"
fill="#21262d"
/>
<rect
x="288"
y="0"
width="9"
height="9"
rx="2"
fill="#21262d"
/>
<rect
x="288"
y="12"
width="9"
height="9"
rx="2"
fill="#21262d"
/>
<rect
x="288"
y="24"
width="9"
height="9"
rx="2"
fill="#21262d"
/>
<rect
x="288"
y="36"
width="9"
height="9"
rx="2"
fill="#21262d"
/>
<rect
x="288"
y="48"
width="9"
height="9"
rx="2"
fill="#21262d"
/>
<rect
x="288"
y="60"
width="9"
height="9"
rx="2"
fill="#21262d"
/>
<rect
x="288"
y="72"
width="9"
height="9"
rx="2"
fill="#21262d"
/>
<rect
x="300"
y="0"
width="9"
height="9"
rx="2"
fill="#21262d"
/>
<rect
x="300"
y="12"
width="9"
height="9"
rx="2"
fill="#21262d"
/>
<rect
x="300"
y="24"
width="9"
height="9"
rx="2"
fill="#21262d"
/>
<rect
x="300"
y="36"
width="9"
height="9"
rx="2"
fill="#21262d"
/>
<rect
x="300"
y="48"
width="9"
height="9"
rx="2"
fill="#21262d"
/>
<rect
x="300"
y="60"
width="9"
height="9"
rx="2"
fill="#21262d"
/>
<rect
x="300"
y="72"
width="9"
height="9"
rx="2"
fill="#39d353"
/>
<rect
x="312"
y="0"
width="9"
height="9"
rx="2"
fill="#39d353"
/>
<rect
x="312"
y="12"
width="9"
height="9"
rx="2"
fill="#21262d"
/>
<rect
x="312"
y="24"
width="9"
height="9"
rx="2"
fill="#21262d"
/>
<rect
x="312"
y="36"
width="9"
height="9"
rx="2"
fill="#21262d"
/>
<rect
x="312"
y="48"
width="9"
height="9"
rx="2"
fill="#39d353"
/>
<rect
x="312"
y="60"
width="9"
height="9"
rx="2"
fill="#21262d"
/>
<rect
x="312"
y="72"
width="9"
height="9"
rx="2"
fill="#21262d"
/>
<rect
x="324"
y="0"
width="9"
height="9"
rx="2"
fill="#21262d"
/>
<rect
x="324"
y="12"
width="9"
height="9"
rx="2"
fill="#21262d"
/>
<rect
x="324"
y="24"
width="9"
height="9"
rx="2"
fill="#21262d"
/>
<rect
x="324"
y="36"
width="9"
height="9"
rx="2"
fill="#21262d"
/>
<rect
x="324"
y="48"
width="9"
height="9"
rx="2"
fill="#39d353"
/>
<rect
x="324"
y="60"
width="9"
height="9"
rx="2"
fill="#21262d"
/>
<rect
x="324"
y="72"
width="9"
height="9"
rx="2"
fill="#21262d"
/>
<rect
x="336"
y="0"
width="9"
height="9"
rx="2"
fill="#21262d"
/>
<rect
x="336"
y="12"
width="9"
height="9"
rx="2"
fill="#21262d"
/>
<rect
x="336"
y="24"
width="9"
height="9"
rx="2"
fill="#21262d"
/>
<rect
x="336"
y="36"
width="9"
height="9"
rx="2"
fill="#21262d"
/>
<rect
x="336"
y="48"
width="9"
height="9"
rx="2"
fill="#21262d"
/>
<rect
x="336"
y="60"
width="9"
height="9"
rx="2"
fill="#21262d"
/>
<rect
x="336"
y="72"
width="9"
height="9"
rx="2"
fill="#21262d"
/>
<rect
x="348"
y="0"
width="9"
height="9"
rx="2"
fill="#21262d"
/>
<rect
x="348"
y="12"
width="9"
height="9"
rx="2"
fill="#21262d"
/>
<rect
x="348"
y="24"
width="9"
height="9"
rx="2"
fill="#21262d"
/>
<rect
x="348"
y="36"
width="9"
height="9"
rx="2"
fill="#21262d"
/>
<rect
x="348"
y="48"
width="9"
height="9"
rx="2"
fill="#21262d"
/>
<rect
x="348"
y="60"
width="9"
height="9"
rx="2"
fill="#21262d"
/>
<rect
x="348"
y="72"
width="9"
height="9"
rx="2"
fill="#21262d"
/>
<rect
x="360"
y="0"
width="9"
height="9"
rx="2"
fill="#21262d"
/>
<rect
x="360"
y="12"
width="9"
height="9"
rx="2"
fill="#21262d"
/>
<rect
x="360"
y="24"
width="9"
height="9"
rx="2"
fill="#21262d"
/>
<rect
x="360"
y="36"
width="9"
height="9"
rx="2"
fill="#21262d"
/>
<rect
x="360"
y="48"
width="9"
height="9"
rx="2"
fill="#21262d"
/>
<rect
x="360"
y="60"
width="9"
height="9"
rx="2"
fill="#21262d"
/>
<rect
x="360"
y="72"
width="9"
height="9"
rx="2"
fill="#21262d"
/>
<rect
x="372"
y="0"
width="9"
height="9"
rx="2"
fill="#21262d"
/>
<rect
x="372"
y="12"
width="9"
height="9"
rx="2"
fill="#21262d"
/>
<rect
x="372"
y="24"
width="9"
height="9"
rx="2"
fill="#21262d"
/>
<rect
x="372"
y="36"
width="9"
height="9"
rx="2"
fill="#21262d"
/>
<rect
x="372"
y="48"
width="9"
height="9"
rx="2"
fill="#21262d"
/>
<rect
x="372"
y="60"
width="9"
height="9"
rx="2"
fill="#21262d"
/>
<rect
x="372"
y="72"
width="9"
height="9"
rx="2"
fill="#21262d"
/>
<rect
x="384"
y="0"
width="9"
height="9"
rx="2"
fill="#21262d"
/>
<rect
x="384"
y="12"
width="9"
height="9"
rx="2"
fill="#21262d"
/>
<rect
x="384"
y="24"
width="9"
height="9"
rx="2"
fill="#21262d"
/>
<rect
x="384"
y="36"
width="9"
height="9"
rx="2"
fill="#21262d"
/>
<rect
x="384"
y="48"
width="9"
height="9"
rx="2"
fill="#21262d"
/>
<rect
x="384"
y="60"
width="9"
height="9"
rx="2"
fill="#21262d"
/>
<rect
x="384"
y="72"
width="9"
height="9"
rx="2"
fill="#21262d"
/>
<rect
x="396"
y="0"
width="9"
height="9"
rx="2"
fill="#21262d"
/>
<rect
x="396"
y="12"
width="9"
height="9"
rx="2"
fill="#21262d"
/>
<rect
x="396"
y="24"
width="9"
height="9"
rx="2"
fill="#21262d"
/>
<rect
x="396"
y="36"
width="9"
height="9"
rx="2"
fill="#21262d"
/>
<rect
x="396"
y="48"
width="9"
height="9"
rx="2"
fill="#21262d"
/>
<rect
x="396"
y="60"
width="9"
height="9"
rx="2"
fill="#21262d"
/>
<rect
x="396"
y="72"
width="9"
height="9"
rx="2"
fill="#21262d"
/>
<rect
x="408"
y="0"
width="9"
height="9"
rx="2"
fill="#21262d"
/>
<rect
x="408"
y="12"
width="9"
height="9"
rx="2"
fill="#21262d"
/>
<rect
x="408"
y="24"
width="9"
height="9"
rx="2"
fill="#21262d"
/>
<rect
x="408"
y="36"
width="9"
height="9"
rx="2"
fill="#21262d"
/>
<rect
x="408"
y="48"
width="9"
height="9"
rx="2"
fill="#21262d"
/>
<rect
x="408"
y="60"
width="9"
height="9"
rx="2"
fill="#21262d"
/>
<rect
x="408"
y="72"
width="9"
height="9"
rx="2"
fill="#21262d"
/>
<rect
x="420"
y="0"
width="9"
height="9"
rx="2"
fill="#21262d"
/>
<rect
x="420"
y="12"
width="9"
height="9"
rx="2"
fill="#21262d"
/>
<rect
x="420"
y="24"
width="9"
height="9"
rx="2"
fill="#21262d"
/>
<rect
x="420"
y="36"
width="9"
height="9"
rx="2"
fill="#21262d"
/>
<rect
x="420"
y="48"
width="9"
height="9"
rx="2"
fill="#21262d"
/>
<rect
x="420"
y="60"
width="9"
height="9"
rx="2"
fill="#21262d"
/>
<rect
x="420"
y="72"
width="9"
height="9"
rx="2"
fill="#21262d"
/>
<rect
x="432"
y="0"
width="9"
height="9"
rx="2"
fill="#21262d"
/>
<rect
x="432"
y="12"
width="9"
height="9"
rx="2"
fill="#21262d"
/>
<rect
x="432"
y="24"
width="9"
height="9"
rx="2"
fill="#21262d"
/>
<rect
x="432"
y="36"
width="9"
height="9"
rx="2"
fill="#21262d"
/>
<rect
x="432"
y="48"
width="9"
height="9"
rx="2"
fill="#21262d"
/>
<rect
x="432"
y="60"
width="9"
height="9"
rx="2"
fill="#21262d"
/>
<rect
x="432"
y="72"
width="9"
height="9"
rx="2"
fill="#21262d"
/>
<rect
x="444"
y="0"
width="9"
height="9"
rx="2"
fill="#21262d"
/>
<rect
x="444"
y="12"
width="9"
height="9"
rx="2"
fill="#21262d"
/>
<rect
x="444"
y="24"
width="9"
height="9"
rx="2"
fill="#21262d"
/>
<rect
x="444"
y="36"
width="9"
height="9"
rx="2"
fill="#21262d"
/>
<rect
x="444"
y="48"
width="9"
height="9"
rx="2"
fill="#21262d"
/>
<rect
x="444"
y="60"
width="9"
height="9"
rx="2"
fill="#21262d"
/>
<rect
x="444"
y="72"
width="9"
height="9"
rx="2"
fill="#39d353"
/>
<rect
x="456"
y="0"
width="9"
height="9"
rx="2"
fill="#39d353"
/>
<rect
x="456"
y="12"
width="9"
height="9"
rx="2"
fill="#21262d"
/>
<rect
x="456"
y="24"
width="9"
height="9"
rx="2"
fill="#39d353"
/>
<rect
x="456"
y="36"
width="9"
height="9"
rx="2"
fill="#21262d"
/>
<rect
x="456"
y="48"
width="9"
height="9"
rx="2"
fill="#21262d"
/>
<rect
x="456"
y="60"
width="9"
height="9"
rx="2"
fill="#21262d"
/>
<rect
x="456"
y="72"
width="9"
height="9"
rx="2"
fill="#39d353"
/>
<rect
x="468"
y="0"
width="9"
height="9"
rx="2"
fill="#21262d"
/>
<rect
x="468"
y="12"
width="9"
height="9"
rx="2"
fill="#39d353"
/>
<rect
x="468"
y="24"
width="9"
height="9"
rx="2"
fill="#21262d"
/>
<rect
x="468"
y="36"
width="9"
height="9"
rx="2"
fill="#21262d"
/>
<rect
x="468"
y="48"
width="9"
height="9"
rx="2"
fill="#39d353"
/>
<rect
x="468"
y="60"
width="9"
height="9"
rx="2"
fill="#39d353"
/>
<rect
x="468"
y="72"
width="9"
height="9"
rx="2"
fill="#21262d"
/>
<rect
x="480"
y="0"
width="9"
height="9"
rx="2"
fill="#21262d"
/>
<rect
x="480"
y="12"
width="9"
height="9"
rx="2"
fill="#21262d"
/>
<rect
x="480"
y="24"
width="9"
height="9"
rx="2"
fill="#21262d"
/>
<rect
x="480"
y="36"
width="9"
height="9"
rx="2"
fill="#21262d"
/>
<rect
x="480"
y="48"
width="9"
height="9"
rx="2"
fill="#21262d"
/>
<rect
x="480"
y="60"
width="9"
height="9"
rx="2"
fill="#21262d"
/>
<rect
x="480"
y="72"
width="9"
height="9"
rx="2"
fill="#39d353"
/>
<rect
x="492"
y="0"
width="9"
height="9"
rx="2"
fill="#21262d"
/>
<rect
x="492"
y="12"
width="9"
height="9"
rx="2"
fill="#39d353"
/>
<rect
x="492"
y="24"
width="9"
height="9"
rx="2"
fill="#21262d"
/>
<rect
x="492"
y="36"
width="9"
height="9"
rx="2"
fill="#21262d"
/>
<rect
x="492"
y="48"
width="9"
height="9"
rx="2"
fill="#21262d"
/>
<rect
x="492"
y="60"
width="9"
height="9"
rx="2"
fill="#21262d"
/>
<rect
x="492"
y="72"
width="9"
height="9"
rx="2"
fill="#21262d"
/>
<rect
x="504"
y="0"
width="9"
height="9"
rx="2"
fill="#21262d"
/>
<rect
x="504"
y="12"
width="9"
height="9"
rx="2"
fill="#21262d"
/>
<rect
x="504"
y="24"
width="9"
height="9"
rx="2"
fill="#39d353"
/>
<rect
x="504"
y="36"
width="9"
height="9"
rx="2"
fill="#39d353"
/>
<rect
x="504"
y="48"
width="9"
height="9"
rx="2"
fill="#39d353"
/>
<rect
x="504"
y="60"
width="9"
height="9"
rx="2"
fill="#39d353"
/>
<rect
x="504"
y="72"
width="9"
height="9"
rx="2"
fill="#39d353"
/>
<rect
x="516"
y="0"
width="9"
height="9"
rx="2"
fill="#39d353"
/>
<rect
x="516"
y="12"
width="9"
height="9"
rx="2"
fill="#21262d"
/>
<rect
x="516"
y="24"
width="9"
height="9"
rx="2"
fill="#39d353"
/>
<rect
x="516"
y="36"
width="9"
height="9"
rx="2"
fill="#39d353"
/>
<rect
x="516"
y="48"
width="9"
height="9"
rx="2"
fill="#39d353"
/>
<rect
x="516"
y="60"
width="9"
height="9"
rx="2"
fill="#21262d"
/>
<rect
x="516"
y="72"
width="9"
height="9"
rx="2"
fill="#21262d"
/>
<rect
x="528"
y="0"
width="9"
height="9"
rx="2"
fill="#39d353"
/>
<rect
x="528"
y="12"
width="9"
height="9"
rx="2"
fill="#21262d"
/>
<rect
x="528"
y="24"
width="9"
height="9"
rx="2"
fill="#21262d"
/>
<rect
x="528"
y="36"
width="9"
height="9"
rx="2"
fill="#39d353"
/>
<rect
x="528"
y="48"
width="9"
height="9"
rx="2"
fill="#39d353"
/>
<rect
x="528"
y="60"
width="9"
height="9"
rx="2"
fill="#39d353"
/>
<rect
x="528"
y="72"
width="9"
height="9"
rx="2"
fill="#21262d"
/>
<rect
x="540"
y="0"
width="9"
height="9"
rx="2"
fill="#21262d"
/>
<rect
x="540"
y="12"
width="9"
height="9"
rx="2"
fill="#21262d"
/>
<rect
x="540"
y="24"
width="9"
height="9"
rx="2"
fill="#21262d"
/>
<rect
x="540"
y="36"
width="9"
height="9"
rx="2"
fill="#21262d"
/>
<rect
x="540"
y="48"
width="9"
height="9"
rx="2"
fill="#21262d"
/>
<rect
x="540"
y="60"
width="9"
height="9"
rx="2"
fill="#21262d"
/>
<rect
x="540"
y="72"
width="9"
height="9"
rx="2"
fill="#21262d"
/>
<rect
x="552"
y="0"
width="9"
height="9"
rx="2"
fill="#39d353"
/>
<rect
x="552"
y="12"
width="9"
height="9"
rx="2"
fill="#39d353"
/>
<rect
x="552"
y="24"
width="9"
height="9"
rx="2"
fill="#21262d"
/>
<rect
x="552"
y="36"
width="9"
height="9"
rx="2"
fill="#39d353"
/>
<rect
x="552"
y="48"
width="9"
height="9"
rx="2"
fill="#39d353"
/>
<rect
x="552"
y="60"
width="9"
height="9"
rx="2"
fill="#39d353"
/>
<rect
x="552"
y="72"
width="9"
height="9"
rx="2"
fill="#39d353"
/>
<rect
x="564"
y="0"
width="9"
height="9"
rx="2"
fill="#39d353"
/>
<rect
x="564"
y="12"
width="9"
height="9"
rx="2"
fill="#39d353"
/>
<rect
x="564"
y="24"
width="9"
height="9"
rx="2"
fill="#21262d"
/>
<rect
x="564"
y="36"
width="9"
height="9"
rx="2"
fill="#21262d"
/>
<rect
x="564"
y="48"
width="9"
height="9"
rx="2"
fill="#21262d"
/>
<rect
x="564"
y="60"
width="9"
height="9"
rx="2"
fill="#21262d"
/>
<rect
x="564"
y="72"
width="9"
height="9"
rx="2"
fill="#21262d"
/>
<rect
x="576"
y="0"
width="9"
height="9"
rx="2"
fill="#39d353"
/>
<rect
x="576"
y="12"
width="9"
height="9"
rx="2"
fill="#39d353"
/>
<rect
x="576"
y="24"
width="9"
height="9"
rx="2"
fill="#21262d"
/>
<rect
x="576"
y="36"
width="9"
height="9"
rx="2"
fill="#21262d"
/>
<rect
x="576"
y="48"
width="9"
height="9"
rx="2"
fill="#21262d"
/>
<rect
x="576"
y="60"
width="9"
height="9"
rx="2"
fill="#39d353"
/>
<rect
x="576"
y="72"
width="9"
height="9"
rx="2"
fill="#39d353"
/>
<rect
x="588"
y="0"
width="9"
height="9"
rx="2"
fill="#39d353"
/>
<rect
x="588"
y="12"
width="9"
height="9"
rx="2"
fill="#39d353"
/>
<rect
x="588"
y="24"
width="9"
height="9"
rx="2"
fill="#39d353"
/>
<rect
x="588"
y="36"
width="9"
height="9"
rx="2"
fill="#39d353"
/>
<rect
x="588"
y="48"
width="9"
height="9"
rx="2"
fill="#39d353"
/>
<rect
x="588"
y="60"
width="9"
height="9"
rx="2"
fill="#39d353"
/>
<rect
x="588"
y="72"
width="9"
height="9"
rx="2"
fill="#39d353"
/>
<rect
x="600"
y="0"
width="9"
height="9"
rx="2"
fill="#39d353"
/>
<rect
x="600"
y="12"
width="9"
height="9"
rx="2"
fill="#39d353"
/>
<rect
x="600"
y="24"
width="9"
height="9"
rx="2"
fill="#39d353"
/>
<rect
x="600"
y="36"
width="9"
height="9"
rx="2"
fill="#39d353"
/>
<rect
x="600"
y="48"
width="9"
height="9"
rx="2"
fill="#39d353"
/>
<rect
x="600"
y="60"
width="9"
height="9"
rx="2"
fill="#39d353"
/>
<rect
x="600"
y="72"
width="9"
height="9"
rx="2"
fill="#39d353"
/>
<rect
x="612"
y="0"
width="9"
height="9"
rx="2"
fill="#39d353"
/>
<rect
x="612"
y="12"
width="9"
height="9"
rx="2"
fill="#39d353"
/>
<rect
x="612"
y="24"
width="9"
height="9"
rx="2"
fill="#39d353"
/>
<rect
x="612"
y="36"
width="9"
height="9"
rx="2"
fill="#39d353"
/>
<rect
x="612"
y="48"
width="9"
height="9"
rx="2"
fill="#39d353"
/>
<rect
x="612"
y="60"
width="9"
height="9"
rx="2"
fill="#39d353"
/>
<rect
x="612"
y="72"
width="9"
height="9"
rx="2"
fill="#39d353"
/>
<rect
x="624"
y="0"
width="9"
height="9"
rx="2"
fill="#39d353"
/>
<rect
x="624"
y="12"
width="9"
height="9"
rx="2"
fill="#39d353"
/>
<rect
x="624"
y="24"
width="9"
height="9"
rx="2"
fill="#39d353"
/>
<rect
x="624"
y="36"
width="9"
height="9"
rx="2"
fill="#39d353"
/>
<rect
x="624"
y="48"
width="9"
height="9"
rx="2"
fill="#39d353"
/>
<rect
x="624"
y="60"
width="9"
height="9"
rx="2"
fill="#39d353"
/>
<rect
x="624"
y="72"
width="9"
height="9"
rx="2"
fill="#21262d"
/>
</g>

    </g>
  
  </g>
  


  <g transform="translate(458, 430)">
  
    <rect
      width="390"
      height="150"
      rx="14"
      fill="#0d1117"
      stroke="#30363d"
    />
  
    <text
      x="20"
      y="30"
      fill="#58a6ff"
      font-size="17"
      font-weight="600">
      📊 Repo Impact
    </text>
  
    <g transform="translate(0,0)">
      
    <text x="20" y="60" fill="#c9d1d9" font-size="13">
    📦 3d-portfolio
    </text>
    
    <rect
    x="120"
    y="50"
    width="210"
    height="10"
    rx="5"
    fill="#21262d" />
    
    <rect
    x="120"
    y="50"
    width="210"
    height="10"
    rx="5"
    fill="#58a6ff" />
    
    <text x="20" y="84" fill="#c9d1d9" font-size="13">
    📦 apollo-graphql-fed…
    </text>
    
    <rect
    x="120"
    y="74"
    width="210"
    height="10"
    rx="5"
    fill="#21262d" />
    
    <rect
    x="120"
    y="74"
    width="19.084221281564734"
    height="10"
    rx="5"
    fill="#58a6ff" />
    
    <text x="20" y="108" fill="#c9d1d9" font-size="13">
    📦 Abhi-lash19
    </text>
    
    <rect
    x="120"
    y="98"
    width="210"
    height="10"
    rx="5"
    fill="#21262d" />
    
    <rect
    x="120"
    y="98"
    width="8.588819150488979"
    height="10"
    rx="5"
    fill="#58a6ff" />
    
    <text x="20" y="132" fill="#c9d1d9" font-size="13">
    📦 infra-deploy-aws
    </text>
    
    <rect
    x="120"
    y="122"
    width="210"
    height="10"
    rx="5"
    fill="#21262d" />
    
    <rect
    x="120"
    y="122"
    width="4.352649248284922"
    height="10"
    rx="5"
    fill="#58a6ff" />
    
    <text x="20" y="156" fill="#c9d1d9" font-size="13">
    📦 MonitorPro
    </text>
    
    <rect
    x="120"
    y="146"
    width="210"
    height="10"
    rx="5"
    fill="#21262d" />
    
    <rect
    x="120"
    y="146"
    width="3.8989928477594513"
    height="10"
    rx="5"
    fill="#58a6ff" />
    
    </g>
  
  </g>
  


  <g transform="translate(32, 730)">
  
    <rect
      width="390"
      height="150"
      rx="14"
      fill="#0d1117"
      stroke="#30363d"
    />
  
    <text
      x="20"
      y="30"
      fill="#58a6ff"
      font-size="17"
      font-weight="600">
      🧩 Languages
    </text>
  
    <g transform="translate(0,0)">
      
<text x="20" y="60" fill="#c9d1d9" font-size="13">
🔷 TypeScript
</text>

<rect
x="120"
y="50"
width="210"
height="10"
rx="5"
fill="#21262d" />

<rect
x="120"
y="50"
width="84.525"
height="10"
rx="5"
fill="#58a6ff" />

<text
x="336"
y="60"
fill="#c9d1d9"
font-size="12">
40.3%
</text>

<text x="20" y="84" fill="#c9d1d9" font-size="13">
🟨 JavaScript
</text>

<rect
x="120"
y="74"
width="210"
height="10"
rx="5"
fill="#21262d" />

<rect
x="120"
y="74"
width="75.95700000000001"
height="10"
rx="5"
fill="#58a6ff" />

<text
x="336"
y="84"
fill="#c9d1d9"
font-size="12">
36.2%
</text>

<text x="20" y="108" fill="#c9d1d9" font-size="13">
🐍 Python
</text>

<rect
x="120"
y="98"
width="210"
height="10"
rx="5"
fill="#21262d" />

<rect
x="120"
y="98"
width="23.415"
height="10"
rx="5"
fill="#58a6ff" />

<text
x="336"
y="108"
fill="#c9d1d9"
font-size="12">
11.2%
</text>

<text x="20" y="132" fill="#c9d1d9" font-size="13">
🌐 HTML
</text>

<rect
x="120"
y="122"
width="210"
height="10"
rx="5"
fill="#21262d" />

<rect
x="120"
y="122"
width="8.777999999999999"
height="10"
rx="5"
fill="#58a6ff" />

<text
x="336"
y="132"
fill="#c9d1d9"
font-size="12">
4.2%
</text>

<text x="20" y="156" fill="#c9d1d9" font-size="13">
🧩 EJS
</text>

<rect
x="120"
y="146"
width="210"
height="10"
rx="5"
fill="#21262d" />

<rect
x="120"
y="146"
width="6.069000000000001"
height="10"
rx="5"
fill="#58a6ff" />

<text
x="336"
y="156"
fill="#c9d1d9"
font-size="12">
2.9%
</text>

    </g>
  
  </g>
  


  <g transform="translate(458, 730)">
  
    <rect
      width="390"
      height="150"
      rx="14"
      fill="#0d1117"
      stroke="#30363d"
    />
  
    <text
      x="20"
      y="30"
      fill="#58a6ff"
      font-size="17"
      font-weight="600">
      📦 Top Repositories
    </text>
  
    <g transform="translate(0,0)">
      
    <text x="20" y="60" fill="#c9d1d9" font-size="13">
    📦 apollo-graphql-federat… — 121
    </text>
    
    <text x="20" y="80" fill="#c9d1d9" font-size="13">
    📦 express-typescript-bac… — 76
    </text>
    
    <text x="20" y="100" fill="#c9d1d9" font-size="13">
    📦 3d-portfolio — 74
    </text>
    
    <text x="20" y="120" fill="#c9d1d9" font-size="13">
    📦 GitInsight_Engine — 72
    </text>
    
    <text x="20" y="140" fill="#c9d1d9" font-size="13">
    📦 Abhi-lash19 — 50
    </text>
    
    </g>
  
  </g>
  


  <g transform="translate(32, 920)">
  
    <rect
      width="390"
      height="150"
      rx="14"
      fill="#0d1117"
      stroke="#30363d"
    />
  
    <text
      x="20"
      y="30"
      fill="#58a6ff"
      font-size="17"
      font-weight="600">
      📈 Commit Activity
    </text>
  
    <g transform="translate(0,0)">
      <path d="M 20 130 L 26 130 L 32 130 L 38 130 L 44 130 L 50 130 L 56 130 L 62 130 L 68 130 L 74 130 L 80 130 L 86 130 L 92 130 L 98 130 L 104 130 L 110 130 L 116 130 L 122 130 L 128 130 L 134 130 L 140 130 L 146 130 L 152 130 L 158 130 L 164 130 L 170 117.2 L 176 126.8 L 182 130 L 188 130 L 194 130 L 200 130 L 206 130 L 212 130 L 218 130 L 224 130 L 230 130 L 236 130 L 242 125.2 L 248 124.4 L 254 128.4 L 260 126.8 L 266 120.4 L 272 104.4 L 278 94 L 284 130 L 290 102 L 296 122 L 302 122.8 L 308 70 L 314 100.4 L 320 97.2 L 326 110.8" stroke="#58a6ff" fill="none" stroke-width="2"/>
    </g>
  
  </g>
  

</svg>
