

<svg width="820" height="440" viewBox="0 0 820 440" xmlns="http://www.w3.org/2000/svg">

<defs>

<linearGradient id="bg" x1="0" y1="0" x2="1" y2="1">
<stop offset="0%" stop-color="#0d1117" />
<stop offset="100%" stop-color="#161b22" />
</linearGradient>

<filter id="shadow" x="-20%" y="-20%" width="140%" height="140%">
<feDropShadow dx="0" dy="3" stdDeviation="4" flood-opacity="0.25"/>
</filter>

</defs>

<rect
width="100%"
height="100%"
rx="20"
fill="url(#bg)"
stroke="#30363d"
filter="url(#shadow)"
/>

<text
x="32"
y="48"
fill="#58a6ff"
font-size="24"
font-weight="700"
>
GitInsight Profile
</text>


<!-- OVERVIEW -->

<rect
x="32"
y="70"
width="360"
height="150"
rx="14"
fill="#0d1117"
stroke="#30363d"
/>

<text x="52" y="100" fill="#58a6ff" font-size="17" font-weight="600">
Overview
</text>

<text x="52" y="130" fill="#c9d1d9" font-size="14">
📦 Repositories: 16
</text>

<text x="52" y="152" fill="#c9d1d9" font-size="14">
⭐ Stars: 1
</text>

<text x="52" y="174" fill="#c9d1d9" font-size="14">
🍴 Forks: 0
</text>

<text x="52" y="196" fill="#c9d1d9" font-size="14">
🔥 Contributions: 335
</text>


<!-- INSIGHTS -->

<rect
x="32"
y="240"
width="360"
height="150"
rx="14"
fill="#0d1117"
stroke="#30363d"
/>

<text x="52" y="270" fill="#58a6ff" font-size="17" font-weight="600">
Developer Insights
</text>

<text x="52" y="300" fill="#c9d1d9" font-size="14">
⚡ Productivity Score: 100
</text>

<text x="52" y="322" fill="#c9d1d9" font-size="14">
📈 Activity Level: High
</text>

<text x="52" y="344" fill="#c9d1d9" font-size="14">
📝 Commits: 613
</text>

<text x="52" y="366" fill="#c9d1d9" font-size="14">
🚀 Top Repo: CoreGPT
</text>


<!-- CODE -->

<rect
x="428"
y="70"
width="360"
height="120"
rx="14"
fill="#0d1117"
stroke="#30363d"
/>

<text x="448" y="100" fill="#58a6ff" font-size="17" font-weight="600">
Code Activity
</text>

<text x="448" y="130" fill="#c9d1d9" font-size="14">
➕ Lines Added: 90545
</text>

<text x="448" y="152" fill="#c9d1d9" font-size="14">
➖ Lines Deleted: 51083
</text>

<text x="448" y="174" fill="#c9d1d9" font-size="14">
📊 Net Lines: 39462
</text>


<!-- LANGUAGES -->

<rect
x="428"
y="210"
width="360"
height="180"
rx="14"
fill="#0d1117"
stroke="#30363d"
/>

<text
x="448"
y="235"
fill="#58a6ff"
font-size="17"
font-weight="600"
>
Top Languages
</text>



<text
x="448"
y="260"
fill="#c9d1d9"
font-size="13"
>
TypeScript
</text>

<rect
x="538"
y="250"
width="160"
height="10"
rx="5"
fill="#21262d"
/>

<rect
x="538"
y="250"
width="64.56"
height="10"
rx="5"
fill="#58a6ff"
/>

<text
x="704"
y="260"
fill="#c9d1d9"
font-size="12"
>
40.4%
</text>



<text
x="448"
y="282"
fill="#c9d1d9"
font-size="13"
>
JavaScript
</text>

<rect
x="538"
y="272"
width="160"
height="10"
rx="5"
fill="#21262d"
/>

<rect
x="538"
y="272"
width="57.599999999999994"
height="10"
rx="5"
fill="#58a6ff"
/>

<text
x="704"
y="282"
fill="#c9d1d9"
font-size="12"
>
36.0%
</text>



<text
x="448"
y="304"
fill="#c9d1d9"
font-size="13"
>
Python
</text>

<rect
x="538"
y="294"
width="160"
height="10"
rx="5"
fill="#21262d"
/>

<rect
x="538"
y="294"
width="17.887999999999998"
height="10"
rx="5"
fill="#58a6ff"
/>

<text
x="704"
y="304"
fill="#c9d1d9"
font-size="12"
>
11.2%
</text>



<text
x="448"
y="326"
fill="#c9d1d9"
font-size="13"
>
HTML
</text>

<rect
x="538"
y="316"
width="160"
height="10"
rx="5"
fill="#21262d"
/>

<rect
x="538"
y="316"
width="6.720000000000001"
height="10"
rx="5"
fill="#58a6ff"
/>

<text
x="704"
y="326"
fill="#c9d1d9"
font-size="12"
>
4.2%
</text>



<text
x="448"
y="348"
fill="#c9d1d9"
font-size="13"
>
EJS
</text>

<rect
x="538"
y="338"
width="160"
height="10"
rx="5"
fill="#21262d"
/>

<rect
x="538"
y="338"
width="4.6240000000000006"
height="10"
rx="5"
fill="#58a6ff"
/>

<text
x="704"
y="348"
fill="#c9d1d9"
font-size="12"
>
2.9%
</text>



</svg>
