
<svg width="420" height="220" viewBox="0 0 420 220" xmlns="http://www.w3.org/2000/svg">
    <defs>
        <linearGradient id="cardBg" x1="0" y1="0" x2="1" y2="1">
            <stop offset="0%" stop-color="#0d1117"/>
            <stop offset="100%" stop-color="#161b22"/>
        </linearGradient>
    </defs>

    <!-- Card background -->
    <rect width="100%" height="100%" rx="16" fill="url(#cardBg)" stroke="#30363d" />

    <!-- Title -->
    <text x="24" y="44" fill="#58a6ff" font-size="20" font-weight="600">
        Repo Impact Ranking
    </text>

    <!-- Progress bars -->
    <g transform="translate(24, 80)">
        
    <g>
      
      <text
        x="0"
        y="18"
        fill="#c9d1d9"
        font-size="12">
        3d-portfolio
      </text>

      <rect
        x="120"
        y="12"
        width="320"
        height="8"
        rx="4"
        fill="#21262d"
      />

      <rect
        x="120"
        y="12"
        width="320"
        height="8"
        rx="4"
        fill="#58a6ff"
      />
      
      
    
      <text
        x="0"
        y="42"
        fill="#c9d1d9"
        font-size="12">
        apollo-graphql-federation…
      </text>

      <rect
        x="120"
        y="36"
        width="320"
        height="8"
        rx="4"
        fill="#21262d"
      />

      <rect
        x="120"
        y="36"
        width="29.08071814333674"
        height="8"
        rx="4"
        fill="#58a6ff"
      />
      
      
    
      <text
        x="0"
        y="66"
        fill="#c9d1d9"
        font-size="12">
        Abhi-lash19
      </text>

      <rect
        x="120"
        y="60"
        width="320"
        height="8"
        rx="4"
        fill="#21262d"
      />

      <rect
        x="120"
        y="60"
        width="18.748795796234127"
        height="8"
        rx="4"
        fill="#58a6ff"
      />
      
      
    
      <text
        x="0"
        y="90"
        fill="#c9d1d9"
        font-size="12">
        infra-deploy-aws
      </text>

      <rect
        x="120"
        y="84"
        width="320"
        height="8"
        rx="4"
        fill="#21262d"
      />

      <rect
        x="120"
        y="84"
        width="6.632608378338929"
        height="8"
        rx="4"
        fill="#58a6ff"
      />
      
      
    
      <text
        x="0"
        y="114"
        fill="#c9d1d9"
        font-size="12">
        MonitorPro
      </text>

      <rect
        x="120"
        y="108"
        width="320"
        height="8"
        rx="4"
        fill="#21262d"
      />

      <rect
        x="120"
        y="108"
        width="5.941322434681069"
        height="8"
        rx="4"
        fill="#58a6ff"
      />
      
      
    
      <text
        x="0"
        y="138"
        fill="#c9d1d9"
        font-size="12">
        ScribeAI
      </text>

      <rect
        x="120"
        y="132"
        width="320"
        height="8"
        rx="4"
        fill="#21262d"
      />

      <rect
        x="120"
        y="132"
        width="3.6806305648810387"
        height="8"
        rx="4"
        fill="#58a6ff"
      />
      
      
    
      <text
        x="0"
        y="162"
        fill="#c9d1d9"
        font-size="12">
        CoreGPT
      </text>

      <rect
        x="120"
        y="156"
        width="320"
        height="8"
        rx="4"
        fill="#21262d"
      />

      <rect
        x="120"
        y="156"
        width="2.400817398919866"
        height="8"
        rx="4"
        fill="#58a6ff"
      />
      
      
    
    </g>
    
    </g>

</svg>
