
<svg viewBox="0 0 900 752" width="100%" xmlns="http://www.w3.org/2000/svg">

<rect width="100%" height="100%" rx="20" fill="#0d1117" stroke="#30363d" />

<text x="32" y="48" fill="#58a6ff" font-size="26" font-weight="700">
🚀 GitInsight Profile
</text>


<g transform="translate(32, 70)">

  <defs>
    <clipPath id="clip-32-70">
      <rect width="390" height="140" rx="14"/>
    </clipPath>
  </defs>

  <rect
    width="390"
    height="140"
    rx="14"
    fill="#0d1117"
    stroke="#30363d"
  />

  <text
    x="20"
    y="30"
    fill="#58a6ff"
    font-size="17"
    font-weight="600">
    Developer Insights
  </text>

  <!--clip content so nothing overflows card -->
  <g transform="translate(0,0)" clip-path="url(#clip-32-70)">
    
<g transform="translate(20,50)" fill="#c9d1d9" font-size="13">

<text x="0" y="0">Productivity: 100</text>
<text x="0" y="18">Activity Level: High</text>
<text x="0" y="36">Churn Ratio: 0.637</text>
<text x="0" y="54">Avg Commits/Week: 7.12</text>

</g>
  </g>

</g>

<g transform="translate(458, 70)">

  <defs>
    <clipPath id="clip-458-70">
      <rect width="390" height="140" rx="14"/>
    </clipPath>
  </defs>

  <rect
    width="390"
    height="140"
    rx="14"
    fill="#0d1117"
    stroke="#30363d"
  />

  <text
    x="20"
    y="30"
    fill="#58a6ff"
    font-size="17"
    font-weight="600">
    Code Activity
  </text>

  <!--clip content so nothing overflows card -->
  <g transform="translate(0,0)" clip-path="url(#clip-458-70)">
    
<g transform="translate(20,50)" fill="#c9d1d9" font-size="13">

<text x="0" y="0">Lines Added: 100068</text>
<text x="0" y="18">Lines Deleted: 63790</text>
<text x="0" y="36">Net Lines: 36278</text>

</g>
  </g>

</g>

<g transform="translate(32, 240)">

  <defs>
    <clipPath id="clip-32-240">
      <rect width="390" height="140" rx="14"/>
    </clipPath>
  </defs>

  <rect
    width="390"
    height="140"
    rx="14"
    fill="#0d1117"
    stroke="#30363d"
  />

  <text
    x="20"
    y="30"
    fill="#58a6ff"
    font-size="17"
    font-weight="600">
    Commit Distribution
  </text>

  <!--clip content so nothing overflows card -->
  <g transform="translate(0,0)" clip-path="url(#clip-32-240)">
    
<g transform="translate(20,50)" fill="#c9d1d9" font-size="13">
<text x="0" y="0">apollo-graphql-federation-demo: 121</text><text x="0" y="18">GitInsight_Engine: 81</text><text x="0" y="36">express-typescript-backend: 76</text><text x="0" y="54">3d-portfolio: 74</text>
</g>
  </g>

</g>

<g transform="translate(458, 240)">

  <defs>
    <clipPath id="clip-458-240">
      <rect width="390" height="140" rx="14"/>
    </clipPath>
  </defs>

  <rect
    width="390"
    height="140"
    rx="14"
    fill="#0d1117"
    stroke="#30363d"
  />

  <text
    x="20"
    y="30"
    fill="#58a6ff"
    font-size="17"
    font-weight="600">
    Languages
  </text>

  <!--clip content so nothing overflows card -->
  <g transform="translate(0,0)" clip-path="url(#clip-458-240)">
    
<g transform="translate(20,50)" fill="#c9d1d9" font-size="13">
<text x="0" y="0">TypeScript: 40.16%</text><text x="0" y="18">JavaScript: 36.31%</text><text x="0" y="36">Python: 11.13%</text><text x="0" y="54">HTML: 4.18%</text><text x="0" y="72">EJS: 2.88%</text>
</g>
  </g>

</g>

<g transform="translate(32, 410)">

  <defs>
    <clipPath id="clip-32-410">
      <rect width="816" height="140" rx="14"/>
    </clipPath>
  </defs>

  <rect
    width="816"
    height="140"
    rx="14"
    fill="#0d1117"
    stroke="#30363d"
  />

  <text
    x="20"
    y="30"
    fill="#58a6ff"
    font-size="17"
    font-weight="600">
    Contribution Heatmap
  </text>

  <!--clip content so nothing overflows card -->
  <g transform="translate(0,0)" clip-path="url(#clip-32-410)">
    
<g transform="translate(20,50)" fill="#c9d1d9" font-size="13">

<g transform="translate(0,0)">

<rect
x="0"
y="0"
width="6"
height="6"
rx="1"
fill="#21262d"
/>
<rect
x="0"
y="8"
width="6"
height="6"
rx="1"
fill="#21262d"
/>
<rect
x="0"
y="16"
width="6"
height="6"
rx="1"
fill="#21262d"
/>
<rect
x="0"
y="24"
width="6"
height="6"
rx="1"
fill="#21262d"
/>
<rect
x="0"
y="32"
width="6"
height="6"
rx="1"
fill="#21262d"
/>
<rect
x="0"
y="40"
width="6"
height="6"
rx="1"
fill="#21262d"
/>
<rect
x="0"
y="48"
width="6"
height="6"
rx="1"
fill="#21262d"
/>
<rect
x="8"
y="0"
width="6"
height="6"
rx="1"
fill="#21262d"
/>
<rect
x="8"
y="8"
width="6"
height="6"
rx="1"
fill="#21262d"
/>
<rect
x="8"
y="16"
width="6"
height="6"
rx="1"
fill="#21262d"
/>
<rect
x="8"
y="24"
width="6"
height="6"
rx="1"
fill="#21262d"
/>
<rect
x="8"
y="32"
width="6"
height="6"
rx="1"
fill="#21262d"
/>
<rect
x="8"
y="40"
width="6"
height="6"
rx="1"
fill="#21262d"
/>
<rect
x="8"
y="48"
width="6"
height="6"
rx="1"
fill="#21262d"
/>
<rect
x="16"
y="0"
width="6"
height="6"
rx="1"
fill="#21262d"
/>
<rect
x="16"
y="8"
width="6"
height="6"
rx="1"
fill="#21262d"
/>
<rect
x="16"
y="16"
width="6"
height="6"
rx="1"
fill="#21262d"
/>
<rect
x="16"
y="24"
width="6"
height="6"
rx="1"
fill="#21262d"
/>
<rect
x="16"
y="32"
width="6"
height="6"
rx="1"
fill="#21262d"
/>
<rect
x="16"
y="40"
width="6"
height="6"
rx="1"
fill="#21262d"
/>
<rect
x="16"
y="48"
width="6"
height="6"
rx="1"
fill="#21262d"
/>
<rect
x="24"
y="0"
width="6"
height="6"
rx="1"
fill="#21262d"
/>
<rect
x="24"
y="8"
width="6"
height="6"
rx="1"
fill="#21262d"
/>
<rect
x="24"
y="16"
width="6"
height="6"
rx="1"
fill="#21262d"
/>
<rect
x="24"
y="24"
width="6"
height="6"
rx="1"
fill="#21262d"
/>
<rect
x="24"
y="32"
width="6"
height="6"
rx="1"
fill="#21262d"
/>
<rect
x="24"
y="40"
width="6"
height="6"
rx="1"
fill="#21262d"
/>
<rect
x="24"
y="48"
width="6"
height="6"
rx="1"
fill="#21262d"
/>
<rect
x="32"
y="0"
width="6"
height="6"
rx="1"
fill="#21262d"
/>
<rect
x="32"
y="8"
width="6"
height="6"
rx="1"
fill="#21262d"
/>
<rect
x="32"
y="16"
width="6"
height="6"
rx="1"
fill="#21262d"
/>
<rect
x="32"
y="24"
width="6"
height="6"
rx="1"
fill="#21262d"
/>
<rect
x="32"
y="32"
width="6"
height="6"
rx="1"
fill="#21262d"
/>
<rect
x="32"
y="40"
width="6"
height="6"
rx="1"
fill="#21262d"
/>
<rect
x="32"
y="48"
width="6"
height="6"
rx="1"
fill="#21262d"
/>
<rect
x="40"
y="0"
width="6"
height="6"
rx="1"
fill="#21262d"
/>
<rect
x="40"
y="8"
width="6"
height="6"
rx="1"
fill="#21262d"
/>
<rect
x="40"
y="16"
width="6"
height="6"
rx="1"
fill="#21262d"
/>
<rect
x="40"
y="24"
width="6"
height="6"
rx="1"
fill="#21262d"
/>
<rect
x="40"
y="32"
width="6"
height="6"
rx="1"
fill="#21262d"
/>
<rect
x="40"
y="40"
width="6"
height="6"
rx="1"
fill="#21262d"
/>
<rect
x="40"
y="48"
width="6"
height="6"
rx="1"
fill="#21262d"
/>
<rect
x="48"
y="0"
width="6"
height="6"
rx="1"
fill="#21262d"
/>
<rect
x="48"
y="8"
width="6"
height="6"
rx="1"
fill="#21262d"
/>
<rect
x="48"
y="16"
width="6"
height="6"
rx="1"
fill="#21262d"
/>
<rect
x="48"
y="24"
width="6"
height="6"
rx="1"
fill="#21262d"
/>
<rect
x="48"
y="32"
width="6"
height="6"
rx="1"
fill="#21262d"
/>
<rect
x="48"
y="40"
width="6"
height="6"
rx="1"
fill="#21262d"
/>
<rect
x="48"
y="48"
width="6"
height="6"
rx="1"
fill="#21262d"
/>
<rect
x="56"
y="0"
width="6"
height="6"
rx="1"
fill="#21262d"
/>
<rect
x="56"
y="8"
width="6"
height="6"
rx="1"
fill="#21262d"
/>
<rect
x="56"
y="16"
width="6"
height="6"
rx="1"
fill="#21262d"
/>
<rect
x="56"
y="24"
width="6"
height="6"
rx="1"
fill="#21262d"
/>
<rect
x="56"
y="32"
width="6"
height="6"
rx="1"
fill="#21262d"
/>
<rect
x="56"
y="40"
width="6"
height="6"
rx="1"
fill="#21262d"
/>
<rect
x="56"
y="48"
width="6"
height="6"
rx="1"
fill="#21262d"
/>
<rect
x="64"
y="0"
width="6"
height="6"
rx="1"
fill="#21262d"
/>
<rect
x="64"
y="8"
width="6"
height="6"
rx="1"
fill="#21262d"
/>
<rect
x="64"
y="16"
width="6"
height="6"
rx="1"
fill="#21262d"
/>
<rect
x="64"
y="24"
width="6"
height="6"
rx="1"
fill="#21262d"
/>
<rect
x="64"
y="32"
width="6"
height="6"
rx="1"
fill="#21262d"
/>
<rect
x="64"
y="40"
width="6"
height="6"
rx="1"
fill="#21262d"
/>
<rect
x="64"
y="48"
width="6"
height="6"
rx="1"
fill="#21262d"
/>
<rect
x="72"
y="0"
width="6"
height="6"
rx="1"
fill="#21262d"
/>
<rect
x="72"
y="8"
width="6"
height="6"
rx="1"
fill="#21262d"
/>
<rect
x="72"
y="16"
width="6"
height="6"
rx="1"
fill="#21262d"
/>
<rect
x="72"
y="24"
width="6"
height="6"
rx="1"
fill="#21262d"
/>
<rect
x="72"
y="32"
width="6"
height="6"
rx="1"
fill="#21262d"
/>
<rect
x="72"
y="40"
width="6"
height="6"
rx="1"
fill="#21262d"
/>
<rect
x="72"
y="48"
width="6"
height="6"
rx="1"
fill="#21262d"
/>
<rect
x="80"
y="0"
width="6"
height="6"
rx="1"
fill="#21262d"
/>
<rect
x="80"
y="8"
width="6"
height="6"
rx="1"
fill="#21262d"
/>
<rect
x="80"
y="16"
width="6"
height="6"
rx="1"
fill="#21262d"
/>
<rect
x="80"
y="24"
width="6"
height="6"
rx="1"
fill="#21262d"
/>
<rect
x="80"
y="32"
width="6"
height="6"
rx="1"
fill="#21262d"
/>
<rect
x="80"
y="40"
width="6"
height="6"
rx="1"
fill="#21262d"
/>
<rect
x="80"
y="48"
width="6"
height="6"
rx="1"
fill="#21262d"
/>
<rect
x="88"
y="0"
width="6"
height="6"
rx="1"
fill="#21262d"
/>
<rect
x="88"
y="8"
width="6"
height="6"
rx="1"
fill="#21262d"
/>
<rect
x="88"
y="16"
width="6"
height="6"
rx="1"
fill="#21262d"
/>
<rect
x="88"
y="24"
width="6"
height="6"
rx="1"
fill="#21262d"
/>
<rect
x="88"
y="32"
width="6"
height="6"
rx="1"
fill="#21262d"
/>
<rect
x="88"
y="40"
width="6"
height="6"
rx="1"
fill="#21262d"
/>
<rect
x="88"
y="48"
width="6"
height="6"
rx="1"
fill="#21262d"
/>
<rect
x="96"
y="0"
width="6"
height="6"
rx="1"
fill="#21262d"
/>
<rect
x="96"
y="8"
width="6"
height="6"
rx="1"
fill="#21262d"
/>
<rect
x="96"
y="16"
width="6"
height="6"
rx="1"
fill="#21262d"
/>
<rect
x="96"
y="24"
width="6"
height="6"
rx="1"
fill="#21262d"
/>
<rect
x="96"
y="32"
width="6"
height="6"
rx="1"
fill="#21262d"
/>
<rect
x="96"
y="40"
width="6"
height="6"
rx="1"
fill="#21262d"
/>
<rect
x="96"
y="48"
width="6"
height="6"
rx="1"
fill="#21262d"
/>
<rect
x="104"
y="0"
width="6"
height="6"
rx="1"
fill="#21262d"
/>
<rect
x="104"
y="8"
width="6"
height="6"
rx="1"
fill="#21262d"
/>
<rect
x="104"
y="16"
width="6"
height="6"
rx="1"
fill="#21262d"
/>
<rect
x="104"
y="24"
width="6"
height="6"
rx="1"
fill="#21262d"
/>
<rect
x="104"
y="32"
width="6"
height="6"
rx="1"
fill="#21262d"
/>
<rect
x="104"
y="40"
width="6"
height="6"
rx="1"
fill="#21262d"
/>
<rect
x="104"
y="48"
width="6"
height="6"
rx="1"
fill="#21262d"
/>
<rect
x="112"
y="0"
width="6"
height="6"
rx="1"
fill="#21262d"
/>
<rect
x="112"
y="8"
width="6"
height="6"
rx="1"
fill="#21262d"
/>
<rect
x="112"
y="16"
width="6"
height="6"
rx="1"
fill="#21262d"
/>
<rect
x="112"
y="24"
width="6"
height="6"
rx="1"
fill="#21262d"
/>
<rect
x="112"
y="32"
width="6"
height="6"
rx="1"
fill="#21262d"
/>
<rect
x="112"
y="40"
width="6"
height="6"
rx="1"
fill="#21262d"
/>
<rect
x="112"
y="48"
width="6"
height="6"
rx="1"
fill="#21262d"
/>
<rect
x="120"
y="0"
width="6"
height="6"
rx="1"
fill="#21262d"
/>
<rect
x="120"
y="8"
width="6"
height="6"
rx="1"
fill="#21262d"
/>
<rect
x="120"
y="16"
width="6"
height="6"
rx="1"
fill="#21262d"
/>
<rect
x="120"
y="24"
width="6"
height="6"
rx="1"
fill="#21262d"
/>
<rect
x="120"
y="32"
width="6"
height="6"
rx="1"
fill="#21262d"
/>
<rect
x="120"
y="40"
width="6"
height="6"
rx="1"
fill="#21262d"
/>
<rect
x="120"
y="48"
width="6"
height="6"
rx="1"
fill="#21262d"
/>
<rect
x="128"
y="0"
width="6"
height="6"
rx="1"
fill="#21262d"
/>
<rect
x="128"
y="8"
width="6"
height="6"
rx="1"
fill="#21262d"
/>
<rect
x="128"
y="16"
width="6"
height="6"
rx="1"
fill="#21262d"
/>
<rect
x="128"
y="24"
width="6"
height="6"
rx="1"
fill="#21262d"
/>
<rect
x="128"
y="32"
width="6"
height="6"
rx="1"
fill="#21262d"
/>
<rect
x="128"
y="40"
width="6"
height="6"
rx="1"
fill="#21262d"
/>
<rect
x="128"
y="48"
width="6"
height="6"
rx="1"
fill="#21262d"
/>
<rect
x="136"
y="0"
width="6"
height="6"
rx="1"
fill="#21262d"
/>
<rect
x="136"
y="8"
width="6"
height="6"
rx="1"
fill="#21262d"
/>
<rect
x="136"
y="16"
width="6"
height="6"
rx="1"
fill="#21262d"
/>
<rect
x="136"
y="24"
width="6"
height="6"
rx="1"
fill="#21262d"
/>
<rect
x="136"
y="32"
width="6"
height="6"
rx="1"
fill="#21262d"
/>
<rect
x="136"
y="40"
width="6"
height="6"
rx="1"
fill="#21262d"
/>
<rect
x="136"
y="48"
width="6"
height="6"
rx="1"
fill="#21262d"
/>
<rect
x="144"
y="0"
width="6"
height="6"
rx="1"
fill="#21262d"
/>
<rect
x="144"
y="8"
width="6"
height="6"
rx="1"
fill="#21262d"
/>
<rect
x="144"
y="16"
width="6"
height="6"
rx="1"
fill="#21262d"
/>
<rect
x="144"
y="24"
width="6"
height="6"
rx="1"
fill="#21262d"
/>
<rect
x="144"
y="32"
width="6"
height="6"
rx="1"
fill="#21262d"
/>
<rect
x="144"
y="40"
width="6"
height="6"
rx="1"
fill="#21262d"
/>
<rect
x="144"
y="48"
width="6"
height="6"
rx="1"
fill="#21262d"
/>
<rect
x="152"
y="0"
width="6"
height="6"
rx="1"
fill="#21262d"
/>
<rect
x="152"
y="8"
width="6"
height="6"
rx="1"
fill="#21262d"
/>
<rect
x="152"
y="16"
width="6"
height="6"
rx="1"
fill="#21262d"
/>
<rect
x="152"
y="24"
width="6"
height="6"
rx="1"
fill="#21262d"
/>
<rect
x="152"
y="32"
width="6"
height="6"
rx="1"
fill="#21262d"
/>
<rect
x="152"
y="40"
width="6"
height="6"
rx="1"
fill="#21262d"
/>
<rect
x="152"
y="48"
width="6"
height="6"
rx="1"
fill="#21262d"
/>
<rect
x="160"
y="0"
width="6"
height="6"
rx="1"
fill="#21262d"
/>
<rect
x="160"
y="8"
width="6"
height="6"
rx="1"
fill="#21262d"
/>
<rect
x="160"
y="16"
width="6"
height="6"
rx="1"
fill="#21262d"
/>
<rect
x="160"
y="24"
width="6"
height="6"
rx="1"
fill="#21262d"
/>
<rect
x="160"
y="32"
width="6"
height="6"
rx="1"
fill="#21262d"
/>
<rect
x="160"
y="40"
width="6"
height="6"
rx="1"
fill="#21262d"
/>
<rect
x="160"
y="48"
width="6"
height="6"
rx="1"
fill="#21262d"
/>
<rect
x="168"
y="0"
width="6"
height="6"
rx="1"
fill="#21262d"
/>
<rect
x="168"
y="8"
width="6"
height="6"
rx="1"
fill="#21262d"
/>
<rect
x="168"
y="16"
width="6"
height="6"
rx="1"
fill="#21262d"
/>
<rect
x="168"
y="24"
width="6"
height="6"
rx="1"
fill="#21262d"
/>
<rect
x="168"
y="32"
width="6"
height="6"
rx="1"
fill="#21262d"
/>
<rect
x="168"
y="40"
width="6"
height="6"
rx="1"
fill="#21262d"
/>
<rect
x="168"
y="48"
width="6"
height="6"
rx="1"
fill="#21262d"
/>
<rect
x="176"
y="0"
width="6"
height="6"
rx="1"
fill="#21262d"
/>
<rect
x="176"
y="8"
width="6"
height="6"
rx="1"
fill="#21262d"
/>
<rect
x="176"
y="16"
width="6"
height="6"
rx="1"
fill="#21262d"
/>
<rect
x="176"
y="24"
width="6"
height="6"
rx="1"
fill="#21262d"
/>
<rect
x="176"
y="32"
width="6"
height="6"
rx="1"
fill="#21262d"
/>
<rect
x="176"
y="40"
width="6"
height="6"
rx="1"
fill="#21262d"
/>
<rect
x="176"
y="48"
width="6"
height="6"
rx="1"
fill="#21262d"
/>
<rect
x="184"
y="0"
width="6"
height="6"
rx="1"
fill="#21262d"
/>
<rect
x="184"
y="8"
width="6"
height="6"
rx="1"
fill="#21262d"
/>
<rect
x="184"
y="16"
width="6"
height="6"
rx="1"
fill="#21262d"
/>
<rect
x="184"
y="24"
width="6"
height="6"
rx="1"
fill="#21262d"
/>
<rect
x="184"
y="32"
width="6"
height="6"
rx="1"
fill="#21262d"
/>
<rect
x="184"
y="40"
width="6"
height="6"
rx="1"
fill="#21262d"
/>
<rect
x="184"
y="48"
width="6"
height="6"
rx="1"
fill="#21262d"
/>
<rect
x="192"
y="0"
width="6"
height="6"
rx="1"
fill="#21262d"
/>
<rect
x="192"
y="8"
width="6"
height="6"
rx="1"
fill="#21262d"
/>
<rect
x="192"
y="16"
width="6"
height="6"
rx="1"
fill="#21262d"
/>
<rect
x="192"
y="24"
width="6"
height="6"
rx="1"
fill="#21262d"
/>
<rect
x="192"
y="32"
width="6"
height="6"
rx="1"
fill="#21262d"
/>
<rect
x="192"
y="40"
width="6"
height="6"
rx="1"
fill="#21262d"
/>
<rect
x="192"
y="48"
width="6"
height="6"
rx="1"
fill="#21262d"
/>
<rect
x="200"
y="0"
width="6"
height="6"
rx="1"
fill="#21262d"
/>
<rect
x="200"
y="8"
width="6"
height="6"
rx="1"
fill="#21262d"
/>
<rect
x="200"
y="16"
width="6"
height="6"
rx="1"
fill="#21262d"
/>
<rect
x="200"
y="24"
width="6"
height="6"
rx="1"
fill="#39d353"
/>
<rect
x="200"
y="32"
width="6"
height="6"
rx="1"
fill="#39d353"
/>
<rect
x="200"
y="40"
width="6"
height="6"
rx="1"
fill="#21262d"
/>
<rect
x="200"
y="48"
width="6"
height="6"
rx="1"
fill="#21262d"
/>
<rect
x="208"
y="0"
width="6"
height="6"
rx="1"
fill="#21262d"
/>
<rect
x="208"
y="8"
width="6"
height="6"
rx="1"
fill="#39d353"
/>
<rect
x="208"
y="16"
width="6"
height="6"
rx="1"
fill="#21262d"
/>
<rect
x="208"
y="24"
width="6"
height="6"
rx="1"
fill="#21262d"
/>
<rect
x="208"
y="32"
width="6"
height="6"
rx="1"
fill="#21262d"
/>
<rect
x="208"
y="40"
width="6"
height="6"
rx="1"
fill="#21262d"
/>
<rect
x="208"
y="48"
width="6"
height="6"
rx="1"
fill="#21262d"
/>
<rect
x="216"
y="0"
width="6"
height="6"
rx="1"
fill="#21262d"
/>
<rect
x="216"
y="8"
width="6"
height="6"
rx="1"
fill="#39d353"
/>
<rect
x="216"
y="16"
width="6"
height="6"
rx="1"
fill="#21262d"
/>
<rect
x="216"
y="24"
width="6"
height="6"
rx="1"
fill="#21262d"
/>
<rect
x="216"
y="32"
width="6"
height="6"
rx="1"
fill="#21262d"
/>
<rect
x="216"
y="40"
width="6"
height="6"
rx="1"
fill="#21262d"
/>
<rect
x="216"
y="48"
width="6"
height="6"
rx="1"
fill="#21262d"
/>
<rect
x="224"
y="0"
width="6"
height="6"
rx="1"
fill="#21262d"
/>
<rect
x="224"
y="8"
width="6"
height="6"
rx="1"
fill="#21262d"
/>
<rect
x="224"
y="16"
width="6"
height="6"
rx="1"
fill="#21262d"
/>
<rect
x="224"
y="24"
width="6"
height="6"
rx="1"
fill="#21262d"
/>
<rect
x="224"
y="32"
width="6"
height="6"
rx="1"
fill="#21262d"
/>
<rect
x="224"
y="40"
width="6"
height="6"
rx="1"
fill="#21262d"
/>
<rect
x="224"
y="48"
width="6"
height="6"
rx="1"
fill="#21262d"
/>
<rect
x="232"
y="0"
width="6"
height="6"
rx="1"
fill="#21262d"
/>
<rect
x="232"
y="8"
width="6"
height="6"
rx="1"
fill="#21262d"
/>
<rect
x="232"
y="16"
width="6"
height="6"
rx="1"
fill="#21262d"
/>
<rect
x="232"
y="24"
width="6"
height="6"
rx="1"
fill="#21262d"
/>
<rect
x="232"
y="32"
width="6"
height="6"
rx="1"
fill="#21262d"
/>
<rect
x="232"
y="40"
width="6"
height="6"
rx="1"
fill="#21262d"
/>
<rect
x="232"
y="48"
width="6"
height="6"
rx="1"
fill="#21262d"
/>
<rect
x="240"
y="0"
width="6"
height="6"
rx="1"
fill="#21262d"
/>
<rect
x="240"
y="8"
width="6"
height="6"
rx="1"
fill="#21262d"
/>
<rect
x="240"
y="16"
width="6"
height="6"
rx="1"
fill="#21262d"
/>
<rect
x="240"
y="24"
width="6"
height="6"
rx="1"
fill="#21262d"
/>
<rect
x="240"
y="32"
width="6"
height="6"
rx="1"
fill="#21262d"
/>
<rect
x="240"
y="40"
width="6"
height="6"
rx="1"
fill="#21262d"
/>
<rect
x="240"
y="48"
width="6"
height="6"
rx="1"
fill="#21262d"
/>
<rect
x="248"
y="0"
width="6"
height="6"
rx="1"
fill="#21262d"
/>
<rect
x="248"
y="8"
width="6"
height="6"
rx="1"
fill="#21262d"
/>
<rect
x="248"
y="16"
width="6"
height="6"
rx="1"
fill="#21262d"
/>
<rect
x="248"
y="24"
width="6"
height="6"
rx="1"
fill="#21262d"
/>
<rect
x="248"
y="32"
width="6"
height="6"
rx="1"
fill="#21262d"
/>
<rect
x="248"
y="40"
width="6"
height="6"
rx="1"
fill="#21262d"
/>
<rect
x="248"
y="48"
width="6"
height="6"
rx="1"
fill="#21262d"
/>
<rect
x="256"
y="0"
width="6"
height="6"
rx="1"
fill="#21262d"
/>
<rect
x="256"
y="8"
width="6"
height="6"
rx="1"
fill="#21262d"
/>
<rect
x="256"
y="16"
width="6"
height="6"
rx="1"
fill="#21262d"
/>
<rect
x="256"
y="24"
width="6"
height="6"
rx="1"
fill="#21262d"
/>
<rect
x="256"
y="32"
width="6"
height="6"
rx="1"
fill="#21262d"
/>
<rect
x="256"
y="40"
width="6"
height="6"
rx="1"
fill="#21262d"
/>
<rect
x="256"
y="48"
width="6"
height="6"
rx="1"
fill="#21262d"
/>
<rect
x="264"
y="0"
width="6"
height="6"
rx="1"
fill="#21262d"
/>
<rect
x="264"
y="8"
width="6"
height="6"
rx="1"
fill="#21262d"
/>
<rect
x="264"
y="16"
width="6"
height="6"
rx="1"
fill="#21262d"
/>
<rect
x="264"
y="24"
width="6"
height="6"
rx="1"
fill="#21262d"
/>
<rect
x="264"
y="32"
width="6"
height="6"
rx="1"
fill="#21262d"
/>
<rect
x="264"
y="40"
width="6"
height="6"
rx="1"
fill="#21262d"
/>
<rect
x="264"
y="48"
width="6"
height="6"
rx="1"
fill="#21262d"
/>
<rect
x="272"
y="0"
width="6"
height="6"
rx="1"
fill="#21262d"
/>
<rect
x="272"
y="8"
width="6"
height="6"
rx="1"
fill="#21262d"
/>
<rect
x="272"
y="16"
width="6"
height="6"
rx="1"
fill="#21262d"
/>
<rect
x="272"
y="24"
width="6"
height="6"
rx="1"
fill="#21262d"
/>
<rect
x="272"
y="32"
width="6"
height="6"
rx="1"
fill="#21262d"
/>
<rect
x="272"
y="40"
width="6"
height="6"
rx="1"
fill="#21262d"
/>
<rect
x="272"
y="48"
width="6"
height="6"
rx="1"
fill="#21262d"
/>
<rect
x="280"
y="0"
width="6"
height="6"
rx="1"
fill="#21262d"
/>
<rect
x="280"
y="8"
width="6"
height="6"
rx="1"
fill="#21262d"
/>
<rect
x="280"
y="16"
width="6"
height="6"
rx="1"
fill="#21262d"
/>
<rect
x="280"
y="24"
width="6"
height="6"
rx="1"
fill="#21262d"
/>
<rect
x="280"
y="32"
width="6"
height="6"
rx="1"
fill="#21262d"
/>
<rect
x="280"
y="40"
width="6"
height="6"
rx="1"
fill="#21262d"
/>
<rect
x="280"
y="48"
width="6"
height="6"
rx="1"
fill="#21262d"
/>
<rect
x="288"
y="0"
width="6"
height="6"
rx="1"
fill="#21262d"
/>
<rect
x="288"
y="8"
width="6"
height="6"
rx="1"
fill="#21262d"
/>
<rect
x="288"
y="16"
width="6"
height="6"
rx="1"
fill="#21262d"
/>
<rect
x="288"
y="24"
width="6"
height="6"
rx="1"
fill="#21262d"
/>
<rect
x="288"
y="32"
width="6"
height="6"
rx="1"
fill="#21262d"
/>
<rect
x="288"
y="40"
width="6"
height="6"
rx="1"
fill="#21262d"
/>
<rect
x="288"
y="48"
width="6"
height="6"
rx="1"
fill="#21262d"
/>
<rect
x="296"
y="0"
width="6"
height="6"
rx="1"
fill="#21262d"
/>
<rect
x="296"
y="8"
width="6"
height="6"
rx="1"
fill="#21262d"
/>
<rect
x="296"
y="16"
width="6"
height="6"
rx="1"
fill="#21262d"
/>
<rect
x="296"
y="24"
width="6"
height="6"
rx="1"
fill="#39d353"
/>
<rect
x="296"
y="32"
width="6"
height="6"
rx="1"
fill="#39d353"
/>
<rect
x="296"
y="40"
width="6"
height="6"
rx="1"
fill="#21262d"
/>
<rect
x="296"
y="48"
width="6"
height="6"
rx="1"
fill="#39d353"
/>
<rect
x="304"
y="0"
width="6"
height="6"
rx="1"
fill="#21262d"
/>
<rect
x="304"
y="8"
width="6"
height="6"
rx="1"
fill="#21262d"
/>
<rect
x="304"
y="16"
width="6"
height="6"
rx="1"
fill="#21262d"
/>
<rect
x="304"
y="24"
width="6"
height="6"
rx="1"
fill="#39d353"
/>
<rect
x="304"
y="32"
width="6"
height="6"
rx="1"
fill="#21262d"
/>
<rect
x="304"
y="40"
width="6"
height="6"
rx="1"
fill="#39d353"
/>
<rect
x="304"
y="48"
width="6"
height="6"
rx="1"
fill="#21262d"
/>
<rect
x="312"
y="0"
width="6"
height="6"
rx="1"
fill="#21262d"
/>
<rect
x="312"
y="8"
width="6"
height="6"
rx="1"
fill="#39d353"
/>
<rect
x="312"
y="16"
width="6"
height="6"
rx="1"
fill="#39d353"
/>
<rect
x="312"
y="24"
width="6"
height="6"
rx="1"
fill="#21262d"
/>
<rect
x="312"
y="32"
width="6"
height="6"
rx="1"
fill="#21262d"
/>
<rect
x="312"
y="40"
width="6"
height="6"
rx="1"
fill="#21262d"
/>
<rect
x="312"
y="48"
width="6"
height="6"
rx="1"
fill="#21262d"
/>
<rect
x="320"
y="0"
width="6"
height="6"
rx="1"
fill="#21262d"
/>
<rect
x="320"
y="8"
width="6"
height="6"
rx="1"
fill="#21262d"
/>
<rect
x="320"
y="16"
width="6"
height="6"
rx="1"
fill="#21262d"
/>
<rect
x="320"
y="24"
width="6"
height="6"
rx="1"
fill="#39d353"
/>
<rect
x="320"
y="32"
width="6"
height="6"
rx="1"
fill="#21262d"
/>
<rect
x="320"
y="40"
width="6"
height="6"
rx="1"
fill="#39d353"
/>
<rect
x="320"
y="48"
width="6"
height="6"
rx="1"
fill="#21262d"
/>
<rect
x="328"
y="0"
width="6"
height="6"
rx="1"
fill="#21262d"
/>
<rect
x="328"
y="8"
width="6"
height="6"
rx="1"
fill="#21262d"
/>
<rect
x="328"
y="16"
width="6"
height="6"
rx="1"
fill="#21262d"
/>
<rect
x="328"
y="24"
width="6"
height="6"
rx="1"
fill="#21262d"
/>
<rect
x="328"
y="32"
width="6"
height="6"
rx="1"
fill="#21262d"
/>
<rect
x="328"
y="40"
width="6"
height="6"
rx="1"
fill="#21262d"
/>
<rect
x="328"
y="48"
width="6"
height="6"
rx="1"
fill="#39d353"
/>
<rect
x="336"
y="0"
width="6"
height="6"
rx="1"
fill="#39d353"
/>
<rect
x="336"
y="8"
width="6"
height="6"
rx="1"
fill="#39d353"
/>
<rect
x="336"
y="16"
width="6"
height="6"
rx="1"
fill="#39d353"
/>
<rect
x="336"
y="24"
width="6"
height="6"
rx="1"
fill="#39d353"
/>
<rect
x="336"
y="32"
width="6"
height="6"
rx="1"
fill="#39d353"
/>
<rect
x="336"
y="40"
width="6"
height="6"
rx="1"
fill="#21262d"
/>
<rect
x="336"
y="48"
width="6"
height="6"
rx="1"
fill="#39d353"
/>
<rect
x="344"
y="0"
width="6"
height="6"
rx="1"
fill="#39d353"
/>
<rect
x="344"
y="8"
width="6"
height="6"
rx="1"
fill="#39d353"
/>
<rect
x="344"
y="16"
width="6"
height="6"
rx="1"
fill="#21262d"
/>
<rect
x="344"
y="24"
width="6"
height="6"
rx="1"
fill="#21262d"
/>
<rect
x="344"
y="32"
width="6"
height="6"
rx="1"
fill="#39d353"
/>
<rect
x="344"
y="40"
width="6"
height="6"
rx="1"
fill="#21262d"
/>
<rect
x="344"
y="48"
width="6"
height="6"
rx="1"
fill="#21262d"
/>
<rect
x="352"
y="0"
width="6"
height="6"
rx="1"
fill="#39d353"
/>
<rect
x="352"
y="8"
width="6"
height="6"
rx="1"
fill="#39d353"
/>
<rect
x="352"
y="16"
width="6"
height="6"
rx="1"
fill="#39d353"
/>
<rect
x="352"
y="24"
width="6"
height="6"
rx="1"
fill="#21262d"
/>
<rect
x="352"
y="32"
width="6"
height="6"
rx="1"
fill="#21262d"
/>
<rect
x="352"
y="40"
width="6"
height="6"
rx="1"
fill="#21262d"
/>
<rect
x="352"
y="48"
width="6"
height="6"
rx="1"
fill="#21262d"
/>
<rect
x="360"
y="0"
width="6"
height="6"
rx="1"
fill="#21262d"
/>
<rect
x="360"
y="8"
width="6"
height="6"
rx="1"
fill="#21262d"
/>
<rect
x="360"
y="16"
width="6"
height="6"
rx="1"
fill="#21262d"
/>
<rect
x="360"
y="24"
width="6"
height="6"
rx="1"
fill="#21262d"
/>
<rect
x="360"
y="32"
width="6"
height="6"
rx="1"
fill="#39d353"
/>
<rect
x="360"
y="40"
width="6"
height="6"
rx="1"
fill="#39d353"
/>
<rect
x="360"
y="48"
width="6"
height="6"
rx="1"
fill="#21262d"
/>
<rect
x="368"
y="0"
width="6"
height="6"
rx="1"
fill="#39d353"
/>
<rect
x="368"
y="8"
width="6"
height="6"
rx="1"
fill="#39d353"
/>
<rect
x="368"
y="16"
width="6"
height="6"
rx="1"
fill="#39d353"
/>
<rect
x="368"
y="24"
width="6"
height="6"
rx="1"
fill="#39d353"
/>
<rect
x="368"
y="32"
width="6"
height="6"
rx="1"
fill="#39d353"
/>
<rect
x="368"
y="40"
width="6"
height="6"
rx="1"
fill="#39d353"
/>
<rect
x="368"
y="48"
width="6"
height="6"
rx="1"
fill="#21262d"
/>
<rect
x="376"
y="0"
width="6"
height="6"
rx="1"
fill="#21262d"
/>
<rect
x="376"
y="8"
width="6"
height="6"
rx="1"
fill="#21262d"
/>
<rect
x="376"
y="16"
width="6"
height="6"
rx="1"
fill="#21262d"
/>
<rect
x="376"
y="24"
width="6"
height="6"
rx="1"
fill="#21262d"
/>
<rect
x="376"
y="32"
width="6"
height="6"
rx="1"
fill="#39d353"
/>
<rect
x="376"
y="40"
width="6"
height="6"
rx="1"
fill="#39d353"
/>
<rect
x="376"
y="48"
width="6"
height="6"
rx="1"
fill="#21262d"
/>
<rect
x="384"
y="0"
width="6"
height="6"
rx="1"
fill="#21262d"
/>
<rect
x="384"
y="8"
width="6"
height="6"
rx="1"
fill="#21262d"
/>
<rect
x="384"
y="16"
width="6"
height="6"
rx="1"
fill="#39d353"
/>
<rect
x="384"
y="24"
width="6"
height="6"
rx="1"
fill="#39d353"
/>
<rect
x="384"
y="32"
width="6"
height="6"
rx="1"
fill="#39d353"
/>
<rect
x="384"
y="40"
width="6"
height="6"
rx="1"
fill="#39d353"
/>
<rect
x="384"
y="48"
width="6"
height="6"
rx="1"
fill="#39d353"
/>
<rect
x="392"
y="0"
width="6"
height="6"
rx="1"
fill="#39d353"
/>
<rect
x="392"
y="8"
width="6"
height="6"
rx="1"
fill="#39d353"
/>
<rect
x="392"
y="16"
width="6"
height="6"
rx="1"
fill="#39d353"
/>
<rect
x="392"
y="24"
width="6"
height="6"
rx="1"
fill="#39d353"
/>
<rect
x="392"
y="32"
width="6"
height="6"
rx="1"
fill="#39d353"
/>
<rect
x="392"
y="40"
width="6"
height="6"
rx="1"
fill="#39d353"
/>
<rect
x="392"
y="48"
width="6"
height="6"
rx="1"
fill="#39d353"
/>
<rect
x="400"
y="0"
width="6"
height="6"
rx="1"
fill="#39d353"
/>
<rect
x="400"
y="8"
width="6"
height="6"
rx="1"
fill="#39d353"
/>
<rect
x="400"
y="16"
width="6"
height="6"
rx="1"
fill="#39d353"
/>
<rect
x="400"
y="24"
width="6"
height="6"
rx="1"
fill="#39d353"
/>
<rect
x="400"
y="32"
width="6"
height="6"
rx="1"
fill="#39d353"
/>
<rect
x="400"
y="40"
width="6"
height="6"
rx="1"
fill="#39d353"
/>
<rect
x="400"
y="48"
width="6"
height="6"
rx="1"
fill="#39d353"
/>
<rect
x="408"
y="0"
width="6"
height="6"
rx="1"
fill="#39d353"
/>
<rect
x="408"
y="8"
width="6"
height="6"
rx="1"
fill="#39d353"
/>
<rect
x="408"
y="16"
width="6"
height="6"
rx="1"
fill="#39d353"
/>
<rect
x="408"
y="24"
width="6"
height="6"
rx="1"
fill="#39d353"
/>
<rect
x="408"
y="32"
width="6"
height="6"
rx="1"
fill="#39d353"
/>
<rect
x="408"
y="40"
width="6"
height="6"
rx="1"
fill="#39d353"
/>
<rect
x="408"
y="48"
width="6"
height="6"
rx="1"
fill="#39d353"
/>
<rect
x="416"
y="0"
width="6"
height="6"
rx="1"
fill="#39d353"
/>
<rect
x="416"
y="8"
width="6"
height="6"
rx="1"
fill="#39d353"
/>
<rect
x="416"
y="16"
width="6"
height="6"
rx="1"
fill="#39d353"
/>
<rect
x="416"
y="24"
width="6"
height="6"
rx="1"
fill="#39d353"
/>
<rect
x="416"
y="32"
width="6"
height="6"
rx="1"
fill="#39d353"
/>
<rect
x="416"
y="40"
width="6"
height="6"
rx="1"
fill="#39d353"
/>
<rect
x="416"
y="48"
width="6"
height="6"
rx="1"
fill="#21262d"
/>
</g>

</g>
  </g>

</g>

<g transform="translate(32, 580)">

  <defs>
    <clipPath id="clip-32-580">
      <rect width="390" height="140" rx="14"/>
    </clipPath>
  </defs>

  <rect
    width="390"
    height="140"
    rx="14"
    fill="#0d1117"
    stroke="#30363d"
  />

  <text
    x="20"
    y="30"
    fill="#58a6ff"
    font-size="17"
    font-weight="600">
    Repo Impact
  </text>

  <!--clip content so nothing overflows card -->
  <g transform="translate(0,0)" clip-path="url(#clip-32-580)">
    
<g transform="translate(20,50)" fill="#c9d1d9" font-size="13">
<text x="0" y="0">3d-portfolio: 342.6</text><text x="0" y="18">apollo-graphql-feder…: 31.1</text><text x="0" y="36">Abhi-lash19: 19.4</text><text x="0" y="54">infra-deploy-aws: 7.1</text><text x="0" y="72">MonitorPro: 6.4</text>
</g>
  </g>

</g>

<g transform="translate(458, 580)">

  <defs>
    <clipPath id="clip-458-580">
      <rect width="390" height="140" rx="14"/>
    </clipPath>
  </defs>

  <rect
    width="390"
    height="140"
    rx="14"
    fill="#0d1117"
    stroke="#30363d"
  />

  <text
    x="20"
    y="30"
    fill="#58a6ff"
    font-size="17"
    font-weight="600">
    TEST OVERVIEW
  </text>

  <!--clip content so nothing overflows card -->
  <g transform="translate(0,0)" clip-path="url(#clip-458-580)">
    
<g transform="translate(20,50)" fill="#c9d1d9" font-size="13">

<text x="0" y="0">Repositories: 16</text>
<text x="0" y="18">Stars Earned: 1</text>
<text x="0" y="36">Forks: 0</text>
<text x="0" y="54">Productivity: 100</text>

</g>
  </g>

</g>


</svg>
